/* XPM */
static char *out[] = {
/* columns rows colors chars-per-pixel */
"64 64 253 2 ",
"   c #04050D",
".  c #08060B",
"X  c #0A050C",
"o  c #0B090E",
"O  c #180D0E",
"+  c #17100F",
"@  c #050611",
"#  c #080913",
"$  c #0B0B13",
"%  c #120D14",
"&  c #1A0E10",
"*  c #151114",
"=  c #191419",
"-  c #270F0E",
";  c #37080C",
":  c #3C0B0D",
">  c #3C0D11",
",  c #28181A",
"<  c #331B1A",
"1  c #3B1818",
"2  c #32221D",
"3  c #1D1C22",
"4  c #221E22",
"5  c #291D21",
"6  c #361E22",
"7  c #252225",
"8  c #2C2324",
"9  c #28252A",
"0  c #2C2529",
"q  c #382927",
"w  c #3C3227",
"e  c #2D2C32",
"r  c #362E32",
"t  c #3C3334",
"y  c #39353A",
"u  c #470B0D",
"i  c #590C0C",
"p  c #480E11",
"a  c #471515",
"s  c #431B1B",
"d  c #4B1C1B",
"f  c #5B1413",
"g  c #571817",
"h  c #531D1B",
"j  c #670C0C",
"k  c #760E0D",
"l  c #74110F",
"z  c #691917",
"x  c #641D1B",
"c  c #761A17",
"v  c #49221C",
"b  c #52221D",
"n  c #5C221D",
"m  c #542A1F",
"M  c #46311A",
"N  c #65251D",
"B  c #6B231D",
"V  c #77241D",
"C  c #7F371D",
"Z  c #4D1E21",
"A  c #432424",
"S  c #4C2423",
"D  c #442826",
"F  c #4C2924",
"G  c #442C2B",
"H  c #4B2C2B",
"J  c #542423",
"K  c #5B2423",
"L  c #542A25",
"P  c #5C2926",
"I  c #582629",
"U  c #532C2B",
"Y  c #5C2D2B",
"T  c #43332B",
"R  c #47352A",
"E  c #4C3D2D",
"W  c #55352A",
"Q  c #5C332E",
"!  c #422E32",
"~  c #512E32",
"^  c #4C3433",
"/  c #463936",
"(  c #4A3D3C",
")  c #533433",
"_  c #5C3432",
"`  c #583A38",
"'  c #5C3B3B",
"]  c #642523",
"[  c #6A2422",
"{  c #642A25",
"}  c #6C2A26",
"|  c #632D2B",
" . c #6C2D29",
".. c #7B2523",
"X. c #732A24",
"o. c #772B27",
"O. c #64322D",
"+. c #683628",
"@. c #6B322C",
"#. c #74322C",
"$. c #79382B",
"%. c #643431",
"&. c #6C3433",
"*. c #673C39",
"=. c #793735",
"-. c #743C3B",
";. c #4C412B",
":. c #4C4137",
">. c #544433",
",. c #5B4B35",
"<. c #5A4D35",
"1. c #55453B",
"2. c #5A4838",
"3. c #6B4A26",
"4. c #69582D",
"5. c #62433C",
"6. c #674839",
"7. c #78453B",
"8. c #6A5635",
"9. c #64543B",
"0. c #69563B",
"q. c #6D5A3B",
"w. c #715E33",
"e. c #735D3D",
"r. c #7A6334",
"t. c #74603F",
"y. c #3A3640",
"u. c #463D41",
"i. c #573E40",
"p. c #693E41",
"a. c #4C4343",
"s. c #484448",
"d. c #4B454B",
"f. c #534444",
"g. c #594845",
"h. c #544B4B",
"j. c #5B4D4B",
"k. c #55504B",
"l. c #5C524E",
"z. c #4E4B52",
"x. c #554C52",
"c. c #595457",
"v. c #654846",
"b. c #784542",
"n. c #6A5846",
"m. c #63534C",
"M. c #735E41",
"N. c #785549",
"B. c #625553",
"V. c #6A5554",
"C. c #635A54",
"Z. c #6B5B54",
"A. c #635C5B",
"S. c #6A5C5A",
"D. c #775A55",
"F. c #756142",
"G. c #7A6444",
"H. c #7A6748",
"J. c #7C694A",
"K. c #69615A",
"L. c #6C615E",
"P. c #77675A",
"I. c #7D7052",
"U. c #645E61",
"Y. c #6A6566",
"T. c #736563",
"R. c #746964",
"E. c #7A6A63",
"W. c #736C6B",
"Q. c #7B6D6B",
"!. c #7C7368",
"~. c #7D726C",
"^. c #756F71",
"/. c #7A7675",
"(. c #89110E",
"). c #8A1A17",
"_. c #971B16",
"`. c #B11811",
"'. c #89221C",
"]. c #96231C",
"[. c #AE231B",
"{. c #872825",
"}. c #942926",
"|. c #85382C",
" X c #95312C",
".X c #853A34",
"XX c #943934",
"oX c #AA2A25",
"OX c #AF302B",
"+X c #C41C16",
"@X c #CC302C",
"#X c #8E731D",
"$X c #864738",
"%X c #914B32",
"&X c #8D7532",
"*X c #8C5147",
"=X c #865A54",
"-X c #A75750",
";X c #826A4A",
":X c #866957",
">X c #916D54",
",X c #A5645C",
"<X c #866A62",
"1X c #88766A",
"2X c #967667",
"3X c #847B74",
"4X c #867976",
"5X c #937C75",
"6X c #A4716A",
"7X c #9A8238",
"8X c #AA9039",
"9X c #C0A43E",
"0X c #D7B638",
"qX c #A68D55",
"wX c #94826F",
"eX c #8A827A",
"rX c #988478",
"tX c #D8B847",
"yX c #E5B551",
"uX c #D4A37A",
"iX c #E9AB6B",
"pX c #E4C349",
"aX c #8B8584",
"sX c #968A85",
"dX c #9C918E",
"fX c #A9938B",
"gX c #A89A95",
"hX c #ACA09C",
"jX c #B2A49E",
"kX c #B4A6A1",
"lX c #B9ABA5",
"zX c #B5ADA9",
"xX c #D1AF95",
"cX c #E9B98C",
"vX c #C6B4AB",
"bX c #D3B9AB",
"nX c #C9BBB5",
"mX c #CCBCB5",
"MX c #CEC2BB",
"NX c #D7C4BA",
"BX c #E6C8AE",
"VX c #D6C8C1",
"CX c #DCCCC4",
"ZX c #DED0C8",
"AX c #E2CDC3",
"SX c #E1CFC8",
"DX c #E5D3C8",
"FX c #E4D4CC",
"GX c #E8D6CD",
"HX c #EAD9CF",
"JX c #E6D8D1",
"KX c #EBDCD3",
"LX c #EFE0D8",
/* pixels */
").K E.sX1XZ p | XX.X5X*.d z K , , 5 4 0 q 6 Z > ; > 1 Z 6 {.2X6X=XB.g.i./ ! u.! r D 5 4 9 5 < h x Z Z <XD. X=.I p L E.!.K.) i A ",
").x <XeXT.x n &.XX| b.*.{ [ q 5 , 5 5 0 r Z s s a A B.V.c.Q.1XU.d.u.y t y r y y.y u.y 9 4 , 5 A x K h <XY =.|.| a Z l.~.V.v c U ",
"} h D.f.m.{.c &.[ Z Z z X.6 9 5 , 1 ] F ) p.V.B.U.U.Y.Y.x.( / E ` 2.2.>.:.R q 8 7 e y y e 5 5 3 s B x h , d } Q z x x.h.V.Z z q ",
"K Y _ x ` {.c O.B ..o.[ A 6 A 5 0 ` D./.^.U.x.u.y.r y.r :.q.t.G.G.G.G.G.G.F.e.0.,.w 0 7 r y q 5 4 1 [ c [ z x L k } T , H S s F ",
"[ {.6.] _ ] g %.Z A q < 9 t *.B.W.Y.x./ T E E >.` E E 9.M.F.t.G.F.F.t.F.F.G.t.t.F.M.9.E 8 9 r ! 0 4 < s d s Z L i O.1 g G K h G ",
"[ }.!.c.D.n z %.< < 6 q 5 d./.W.a./ 1.9.e.G.t.G.F.G.;Xe.F.M.t.t.t.t.F.t.t.F.F.t.e.t.t.t.8.R 2 t y 0 , , , , s P a Y ` w n.V g < ",
"Y X.wXsX<X[ _.&.6 5 N n x./.c.y >.M.G.G.G.t.e.e.M.G.G.e.G.M.t.G.t.F.F.F.t.F.e.M.t.F.t.t.t.e.2.q t ( ! g , , 6  .j P P.W.<X[ g A ",
"| P rXsX1X} _.&.6 } $X=X/.d./ v.F.G.G.G.G.G.;Xe.G.M.M.G.G.e.G.e.t.t.t.t.q.t.e.e.F.t.q.t.t.e.q.0.D t h.&.h < s o.k W K.!.1Xb 1 q ",
"{.} <X5X5XO.g %.6 { *X3Xd.w n.G.t.;XG.G.G.G.;Xe.t.t.t.t.;Xe.e.G.t.t.e.e.e.e.e.e.e.t.e.F.M.F.e.e.8.T / Z.#.A A ] i *.!.3X1Xv h < ",
" Xc =.,X>X[ g %.6 q L.c.t 9.F.G.;Xe.G.t.t.G.e.;XG.G.t.G.e.e.e.t.t.t.t.e.e.e.e.e.e.q.t.q.q.e.F.M.e.n.w a.f.0 S P : _ >X=X&.h c D ",
"#.K S.5XT.c c %.5 d.U.t <.F.H.G.;X;X;XG.;Xe.;Xe.e.t.G.t.e.e.e.e.e.e.e.e.e.e.e.e.e.e.q.e.e.e.e.e.q.e.6.q c.t S P l P P.<Xg.a z q ",
"| I *...&.'.c Y D U.s./ n.F.H.H.e.;Xe.G.e.G.e.e.e.t.$Xe.e.e.e.e.e.t.e.e.e.e.e.e.q.e.t.q.e.e.q.q.q.e.e.) ( l.H I k Y v.-.j.s v 6 ",
"[ {.} f  .] g Q g.c.t 9.F.J.H.J.G.G.G.e.G.t.t.G.;Xe.e.$Xe.e.e.e.e.e.q.t.e.e.e.w.w.e.e.8.e.e.q.e.e.e.e.0.T l.g.F f  .g h { ] d G ",
"..'.p.{.5.b x *.S.k.<.e.F.J.H.H.G.G.G.;Xt.G.e.t.e.e.G.F.t.t.t.e.e.e.t.q.e.q.e.e.q.q.e.8.e.e.e.e.e.q.q.8.>.( C.I : Q n f P V g < ",
"} z V.4XZ.B }.b.A.f.9.t.H.J.H.H.G.;XG.H.G.6.0.q.e.r.t.t.e.q.e.e.e.q.q.q.q.q.w.8.e.q.e.e.e.w.q.e.e.e.q.q.0.E A.=.z H Z.N.f.x h D ",
"@.K >X,X=.[ }.S.c.g.t.t.J.J.H.t.G.G.;XJ.;.t / E q.t.t.t.F.q.e.e.e.e.w.e.e.q.e.e.e.8.e.e.e.e.w.7.q.e.e.8.0.9.S.,Xc U -.2Xv.s F T ",
" X} 2X:X=XK } S.C.9.F.H.J.J.M.F.H.H.;X0./ lXjXj.w 8.e.e.F.e.t.r.e.q.q.e.e.e.e.e.e.e.e.e.e.e.w.e.q.e.q.w.q.n.Z.rX} 7.=.>X=Xd n < ",
" X} E.eX2XX.&.A.l.9.F.I.I.n.w q.H.H.J.E 1XAXDXNXT.w 9.e.t.e.t.t.9.q 9.q.q.e.e.e.e.;Xe.M.e.e.e.t.e.q.e.0.q.0.:XrX*.N.1XR.Z.N {.H ",
"-.] <X4X:X_.=.Y.C.4.H.J.I.<.;.F.G.G.F.:.vXAXBXcXxXE.q q.e.t.F.G.n.+ w e.e.e.e.M.;Xt.G.M.G.e.t.t.t.e.e.0.0.q.I.aX<X#.!.W.m.h B D ",
"&.&.V.i.7.}.7.W.C.9.F.J.I.<.<.F.;X;X9.E.AXAXcXiXxXvXm.E M.F.G.J.M.t / ,.F.t.G.G.G.e.E M.e.e.J.$X;X6.6.q.0.0.F.eX1X6.1.( v.L S D ",
"..|._ N _ x p./.m.q.F.J.I.>.8.H.G.;X2.fXBXcXiXiXuXbXvX/ 0.t.G.;XZ.l.hXT 9.G.G.G.G.q., ,.e.t.M.e.e.e.M 0.0.q.q.P.R.g.a g H V n R ",
"..}.6.W 2.n p.sXK.F.9.q.I.1.0.F.;X;X1.vXFXcXiXiXcXNXGXaXT t.t.;Xq.l.ZXsXT q.M.H.;Xe., q n.G.e.t.e.G.E 6.0.q.n.D.T.m.R D ` '.x A ",
"| o.$XP.N.c XXjXK.;.8 9.I.>.8.F.;XH.Z.NXDXBXiXcXNXDXHXCXj.<.G.;X>.P.AXZX4XT 9.G.;X0.f.l.>.F.e.e.e.;XW ,.q.q.8.H.S.S.Y.K.7.N b G ",
"| O.>X4XD.c }.5X/.s.k.M.I.1.8.H.J.9.2XDXGXDXBXNXAXDXDXHXhXT F.J.T dXDXDXSX4XT 0.M.R 4XlX) 0.M.e.;XM.,.>.8.8.0.M.B.S.R.1X;Xb I D ",
"}.#.wX3XE.K [ *XrXaX/.Z.;X<.9.G.H.:.jXDXbXxXjXxXvXNXNXDXGXS.2.M.:.MXGXDXDXFXgXa.w v.vXAX1X>.e.e.e.;X>.>.8.<.<.5.C.~.R.3X!.n V F ",
" Xo.m.:X$XX.[ b.,XaXK.q.I.l.<.J.0.C.NXDXrX5.+.6.N.2XrXbXSXzX/ w eXZXFXZXFXCXbXrXn.D.<XrXjXm.9.M.e.G.;.,.e.:.0 y T.N..Xl.^ n c D ",
"=.&.=X<XN.].{.-.-XaXC.q.J.F.R J.:.dXDXeX( Z.eXfX5Xn.7.wXbXFX1XS.NXFXJXDXbX2X5.2.Z.D.g.) 5XkXm.0.r.G.T <.J.!.U.W.XX6.D.S.v.J L D ",
"&..XD.g.D.}.o.=.OXsXL.0.J.I.w w m.CX3X1.jXGXKXLXKXVX~.n.mXJXZXSXHXJXHXJXfX^ 4XvXCXDXNXgXg.1XgX2.n.M.q n.J.!.Y.v.k 7.^ D %.} J ^ ",
"{.}.Q W Q B  .#.}.6X/.9.G.P.l.L.lXkX( lXKXKXvXgXmXKXJXQ.3XSXHXHXJXHXKXMXf.sXFXJXDXCXDXHXmXm.sXgXg.( 8 9.J.Q.Y.%.a ` v R F {.x G ",
"{..X` L %. .o.#.#.,XsX1.H.J.R.ZXJXK.4XJXLXjX0 & u.nXKXmXj.vXJXJXHXKXKX4XT.ZXKXnXB.g.sXCXJXgXj.nXvXkXC.9.H.L.Y.{.c +.U v :.#.x ^ ",
"&.p.<XS.=X..}.#.{.OXfXj.n.I.C.vXvX:.lXKXKXY.. X % sXHXKXT.gXJXFXJXHXZXj.jXHXHX4XX X 8 kXGXZXl.gXmXmXT.j.Z.L.T.{.c @.S.S.K.Q U R ",
".X-.-X1XN.{.}..X`.`.,X4X:.n.r l.h./ nXKXLX~.X X & sXKXLX~.f.Q.4X^.1XQ.( mXJXGXT.X X 5 gXAXJXT.c.1X3X:.1.h.Y.D...x %.f.N.7.I [ F ",
"oX.X*X1XT.| [ =.oX`.-X/.A.( t vXnXf.vXKXKXmXx.r E.CXKXKXT.Q.lXjXgXjXsXa.mXKXKXdX, % u.mXGXJXW.u.S.T.8 / A.A.v.Y a B.K.P.7.K ).~ ",
" X$XrXsX<X{.=.*XXX#.%XaX4XgXf.gXKXS.sXKXKXLXJXCXJXKXLXCXg.kXLXLXLXLXFXB.lXKXHXGXlXfXmXFXGXSXB.gXFXlXd.kX/.L.*.| c N.eXeXT.| V ^ ",
"b.-.2XaX<XoX.X*X*X%X%XdXW.VXhXW.JXgXj.MXKXKXKXLXKXKXLXsXm.CXKXKXKXKXKX4X4XFXJXHXKXKXJXGXKXjXj.mXGX4X4XnXA.W.*.{ _.$.!.~.V._ Y W ",
"=.=.D.Y.N.{.#.b.|.|.|.<XY.Y.zXB.kXJXT.R.VXKXLXKXLXKXhXg.lXKXKXJXKXKXKXMXj.jXGXHXHXHXJXJXmXj.sXFXmXA.kX4XA.<X&.Y l +.m.k.n. .K ^ ",
"{.|.%. .' h K @.[  .} o.=Xc.z.y h.MXVXR.B.sXnXmXzX~.l.jXHXLXGXHXKXLXHXKXkXB.gXVXFXGXCXjXB.4XCXCXQ.z.T.d.E.&.K K p R m K ) [ z D ",
"x ..) W *.x .. .V #.X.} u.i.V.Y.U.Y.mXJXkXR.c.B.C.4XmXHXKXGXdXjXmXsXkXFXKXvX1XL.R.E.A.A.gXCXSXsXy a.c.D.=.[ n B z F D v W B j q ",
"U { D.L.7.c ]. . .&.O./ y./ | i.V.A.c.gXSXKXSXAXGXKXKXHXHXHXvXQ.V.4XmXGXGXKXSXvXhXgXlXVXSXmX1Xz.^.W.x.~ I K K {.l L Z.k.6.n v < ",
"..n D.eXN.z {.K f ~ y.t I ` ) Z u _ B.c.A.sXnXFXKXKXKXKXKXHXJXFXCXJXHXFXGXGXGXJXKXHXSXvX4Xd.f.S.-.I y.e K u Z c i W Z.<Xe.b h S ",
"]. .P.1X:Xg K ] k i ! H &._ a p u a u.4X4XY ~ B.3XhXnXZXGXHXJXKXHXGXHXGXHXDXSXMXjXrXR.A.u.h.~ F %.I t a j j J b : ` D.!.:Xm k d ",
"} { %X*Xo.c ] } j (.Y ! I p u p Z ~ s.^.v.OXOXZ 4.q.9.n.P.Q.4X<X4XsXaX4X!.wX1Xn.2 n $X1XY.U : ; s F r c j i n J j +.3.7.X.L z s ",
"Y Y N.:Xv.).} [ j A ) Z > a Z Z 5. .x./.| oX@X| &XpXtXtXr.h }.}.}. XK 4.7X8X9XqXd  XXX=XY.) d a ; > A q 1 j ] K ).P 8.N.5.F v A ",
"B X.5.$X*.c } ] I r Z : Z _ *.*.&.I l.eX~ OX@X| 7XyXyXpXqXx @X@X@X@Xo.&X0XpXpX9Xn  XXX=XY.g.W W H > : A q S P b j F v.-.g.n i < ",
"c {.c j  .h ] Y S a > Z ` 1.5.1.u.~ %././ a Z , ;.w.w.r.E a B ..).{.s 4.&X7X7X;X1 X.=.m.^.m.,.( u.Z > > > q L J > L f i h B j 1 ",
"K  .} l | c }.U > > ) ' d.d.0.h.u.K %.^.y @ % X . ; c c c ..^ T B.t X . & 5 , * % % 0 h.^.v.6.y t U ~ 6 ; ; A V j L f i h N g 2 ",
"{ W P.N.` c {.Z S : > J ` h.v.<.u.I b./.4 # & & & a oX+X@X@X:XP.rX7     X % O % $ % 3 a.c.j.,.( t F ; ; : s J V c D 1.&.1.1 d < ",
").J 7.%X+.g [ K ! D p : U 5.` *.Q | 4XU.$ # % & & g [.@X@X@XQ P.(   O <.4.q $ % * % $ 0 K.m.U W D > ; 1 q q S [ p M ' M.%.v j v ",
"'.{ 7.*X%Xg K B f H ^ a p Z Z I *.%.aXy.$ # % O & a '.{.'.}.1 7 o   , &X8Xq $ % % = % 3 c.v.d a : > D w 1 f n b ; L ] &.C v k 1 ",
"} Q P.wX;X). .[ i (._ ) S ; ; u s v./.3 # # % & & M 3.3.3.3.2 .     o ;.4.= % $ % = % 3 a.f.; ; v ^ ( x j u h m j *.F.Z.l.M h v ",
"b +.:XwX7.).#.{ j i ~ _ *.I a a p v.^.= $ # % & O 4.0X0X0XtX4.          $ # 3 % = = = 5 y v.s Z *.I ! d i j m L l N H.I.9.v s < ",
"z V M.Z.7.f { n z Y s.) | i.i.Z p v./.= = # = = - #X0X0X0XpX4.      @ @ # # # $ % # % 0 t S.( ^ U F u.t f u d L p n n.k.n.x f 1 ",
"c V Q Q *.g N  .Q p.v.d.z.z.g.' h I 4Xh.aXdXeX7 O #X0X0X0XpXr..     @ @ # @ @ @ y d.d.h.u.L.i.z.s.s.f.` ~ S b L p m L R F B z 6 ",
"W _ +.N 2.V }.} #..X=.p.x.z._ | i.d i.A./.dXc.$ + 4.#X&X7X8X<.  @ @ @ @ @ @ @ @ x.kXjXW.c.v.~ d.d.i.+.[ } X.n B z W F g L L h < ",
"[ +.v.m.7.V ].+.[ o.} .Xp.u.i.i.( *.( aXe * @ @ + + O . o + o @ @ @ @ @ @ # @ @ $ y r y.W.i.u.u.i. .] n  .n K ..l L ` T W m b v ",
"}.} 2XeX$Xb  .7.|.$X.X=.=.p.z.z.' #.V.hXy # # # + = O O + . o o @ @ @ @ @ @ @ $ 3 7 = x.U.z.u._ #.o.{ %X[ +.O.] a L n.K.q.v l s ",
"{.@.wX1X*Xg | $X.X%X$.N B $.p.z.x.p.U.4Xu.3 = * * = + + = * o $ o o . o o . $ = 7 3 4 A.c.s.' } N N n %X3.|.O.P p Q n.P.G.b l v ",
"O.5.eX4XD._.#.p.%X7.C C N .X=.v.z.U.z.~ x.U./.U.w <.<.>.<.<.= o * w ;.;.;.;.;.e 9 7 u.c.s.` o. .n B V X.+.=.O.P l &.K.P.P.H h 1 ",
"{ &.l.*X=._. .-.$XV ].{.X.=..X=.p.c.u.i.d./.hXY.4 w w w ;.t * o $ 7 w ;.;.;.:.e d.d.z.z.i.o.#.#.n C c (.B .XO.J l X.#.m.:.m a < ",
"V |.P.:XN.B | .XOX`.].[.|..X#.{.p.x.z.u.x.^.y.3 $ o o o o o $ o . . . o # $ $ = s.U.z.z.&.o. .|.C _._._._.[. .P g W 6.C.g.B f T ",
"..XXD.B.P.P &..X[.`.`.%X%X%X6.|.=.x.x.p.U.hXy.$ $ $ 7 $ . # o o o   @ $ # # * = r T.c.u.#.#.' C %X3._.`.`._.O.Y h v.l.1.V...B q ",
"*.-.O._ v.{. X&. X`.oX$X%X7.*.%X=.x.p.p.b.gXz.= * * 7 * $ $ $ $ * % = 4 3 3 3 = r R.S.z.=.=._ #.3.$X X`.].} | {...2.R v U #.| ) ",
"-.*.2.Q *.{. X=.$.[.-X,X-X*X#.XX.Xx.p..X*.=Xc.r 9 = e 3 4 9 3 9 7 4 3 9 e 9 3 = u.T.*.d.=.=.{ $X%X*X%X[.).| %.{.c ' L W ^ ' _ ` ",
" X6.K.v.N.X.$.#.XX+XOX$X$X#.' .Xp.d.=.p.p.p.c.C.n.k.h.` H i.f.^ / a.h.<.k.s.s.:.b.&.' u.#.#.` +.7.7.|.`.[. .| o.x 5.1.G l.Q ..( "
};