/* XPM */
static char *_a4360493ae04915b67b069501f6226dA7AShZTv0CnfuIbc[] = {
/* columns rows colors chars-per-pixel */
"64 64 165 2 ",
"   c #171411",
".  c #1B1612",
"X  c #1E1913",
"o  c #251504",
"O  c #2B1603",
"+  c #2D1804",
"@  c #23170A",
"#  c #261A0D",
"$  c #2C1B0B",
"%  c #341B03",
"&  c #3B1F03",
"*  c #311D0B",
"=  c #241C14",
"-  c #2A1E13",
";  c #221E1A",
":  c #3E2003",
">  c #35210C",
",  c #3C230A",
"<  c #2C2115",
"1  c #23201C",
"2  c #2B231B",
"3  c #332314",
"4  c #3C2713",
"5  c #3C2915",
"6  c #33261A",
"7  c #37291B",
"8  c #3C2B1A",
"9  c #252423",
"0  c #292624",
"q  c #2F2B27",
"w  c #2D2B29",
"e  c #332C25",
"r  c #3D2F20",
"t  c #312D2A",
"y  c #33302D",
"u  c #3C3329",
"i  c #2D2F31",
"p  c #2F3131",
"a  c #343434",
"s  c #383634",
"d  c #3B3936",
"f  c #33373A",
"g  c #36393C",
"h  c #3C3C3B",
"j  c #411F00",
"k  c #442302",
"l  c #4B2601",
"z  c #4E2803",
"x  c #432508",
"c  c #45290E",
"v  c #4B2A0B",
"b  c #512700",
"n  c #552A00",
"m  c #5A2C00",
"M  c #522D0A",
"N  c #5F3000",
"B  c #422A12",
"V  c #4E3014",
"C  c #43311E",
"Z  c #563617",
"A  c #602F00",
"S  c #623000",
"D  c #443323",
"F  c #493727",
"G  c #4B3B2A",
"H  c #443C32",
"J  c #413F3D",
"K  c #4F4236",
"L  c #42403E",
"P  c #4C443D",
"I  c #50463B",
"U  c #56483A",
"Y  c #373C40",
"T  c #3A3E41",
"R  c #403F40",
"E  c #3D4245",
"W  c #3F4449",
"Q  c #444445",
"!  c #484747",
"~  c #434749",
"^  c #45494C",
"/  c #4A4B4D",
"(  c #524F4C",
")  c #464C51",
"_  c #4A4E52",
"`  c #4D5155",
"'  c #4E555A",
"]  c #4F585E",
"[  c #515354",
"{  c #51565B",
"}  c #52595E",
"|  c #595B5D",
" . c #6F5B46",
".. c #745D45",
"X. c #745F4B",
"o. c #7C6045",
"O. c #6A6057",
"+. c #545C63",
"@. c #595E63",
"#. c #576066",
"$. c #5A6166",
"%. c #576068",
"&. c #5B646C",
"*. c #5F686F",
"=. c #5D6770",
"-. c #5F6971",
";. c #61686E",
":. c #626C74",
">. c #696D71",
",. c #646F78",
"<. c #6D7173",
"1. c #66717A",
"2. c #69747D",
"3. c #727375",
"4. c #737779",
"5. c #72797D",
"6. c #856444",
"7. c #8A6644",
"8. c #8C6844",
"9. c #6A7781",
"0. c #6C7984",
"q. c #737C83",
"w. c #707D88",
"e. c #7B8085",
"r. c #74818C",
"t. c #7C848B",
"y. c #7F8992",
"u. c #828588",
"i. c #83898F",
"p. c #888B8D",
"a. c #848B91",
"s. c #8B8E91",
"d. c #8D9196",
"f. c #8E959B",
"g. c #92979A",
"h. c #95989B",
"j. c #989A9C",
"k. c #939CA4",
"l. c #999FA4",
"z. c #9DA1A5",
"x. c #A2A4A6",
"c. c #A0A6AA",
"v. c #A5A9AC",
"b. c #A8ADB0",
"n. c #AFB4B8",
"m. c #B2B6BA",
"M. c #BBBEC1",
"N. c #C4C5C5",
"B. c #C1C5C8",
"V. c #C6C9CC",
"C. c #CACACA",
"Z. c #CFD0D0",
"A. c #D4D4D5",
"S. c #DCDDDD",
"D. c #DFE0E1",
"F. c #E4E5E5",
"G. c #E6E8E9",
"H. c #EAEAEB",
"J. c #EEEEEE",
"K. c #F0F0EF",
"L. c #EEEFF0",
"P. c gray94",
"I. c #F4F4F4",
"U. c gray98",
"Y. c gray99",
/* pixels */
"P.H.I.U.P.J.I.U.J.J.U.U.J.J.U.I.J.P.U.I.J.P.I.D.M.n.z.a.t.a.y.t.e.q.e.q.q.d.z.n.V.F.P.P.P.I.I.J.P.I.I.P.P.I.I.P.P.I.P.P.I.I.P.P.",
"I.U.P.H.I.U.J.H.I.U.J.H.U.U.H.J.U.U.J.P.S.m.s.q.q.0.0.0.0.0.0.0.0.9.0.0.9.2.:.:.:.q.d.m.L.J.J.U.I.H.J.U.I.H.J.U.I.H.P.Y.P.H.I.Y.",
"P.J.P.I.P.J.I.I.P.J.I.I.J.J.I.I.P.F.A.v.>.0.9.2.9.9.9.0.0.1.9.0.0.0.0.9.9.0.2.+.g { @.:.l.V.F.H.K.U.I.H.J.U.I.H.P.U.P.H.P.U.P.J.",
"P.J.P.I.P.J.P.I.P.J.I.I.P.P.P.A.z.t.0.2.+.-.0.0.0.0.0.9.9.9.0.0.0.0.0.0.9.0.2.) -.2.-.+.' $.q.k.M.D.P.I.P.P.P.I.P.P.P.I.P.P.P.I.",
"I.Y.P.H.I.U.J.H.I.U.J.J.J.N.4.$.1.9.0.0.0.' 1.0.9.2.0.9.9.0.9.0.0.1.2.0.0.0.+.+.0.0.0.0.9.*.' +.:.e.c.S.P.J.P.I.P.J.P.U.P.J.P.U.",
"P.H.I.U.P.H.I.U.J.J.P.N.u.1.-.$.%.2.2.,.2.:.` 0.0.9.0.0.0.0.0.0.1.] @.-.-.-.` 9.9.9.0.9.0.0.0.:.] } :.5.l.S.P.H.P.Y.P.H.I.Y.P.H.",
"P.I.P.J.P.I.P.J.I.C.3.:.9.9.1.0.@.&.*.$.&.%.E ` 1.9.0.0.0.0.0.} ] :.9.2.#.E :.0.0.0.0.0.0.0.2.2.0.` i { 1.q.v.G.I.H.P.U.P.H.P.Y.",
"P.I.P.J.P.I.P.F.x.;.] _ *.9.0.$.$.0.0.0.9.1.1.E ` 1.-.%.+.' ^ 9 _ $.=.,.+.+.0.0.9.9.0.9.0.0.0.1.` ^ -.@.` *.2.i.V.P.P.J.P.I.P.P.",
"P.H.P.U.P.J.S.p.:.0.0.1.} +.$.~ 2.0.0.0.9.:.} p   2 < $ + + o % + $ - ; X a { :.9.0.0.0.0.0.-.~ ] 9.0.0.1.} $.1.q.n.H.J.P.I.P.P.",
"P.U.P.H.I.A.5.1.0.0.9.2.0.:.E _ 9.0.9.&.Q 2 $ + % + k & & & + k : & & O & % $ 6 Q $.9.0.2.` f +.1.,.9.0.9.:.~ ] 2.,.z.J.P.H.P.Y.",
"P.J.P.U.Z.<.2.0.9.0.0.0.0.0.2.#.} @.h = % & & : % + k : k k % z z z l & z l k : + $ d ' W _ $.-.:.*.$.*.@.=.$.+.+.9.2.g.F.Y.P.J.",
"P.J.I.S.<.1.0.0.0.0.0.0.9.0.0.:.0 @ % + k : & & & % n n n n k m m m n k m m n n k k l + ; @.9.2.0.0.9.*.$.9.2.0.*.$.2.2.l.F.P.I.",
"P.Y.F.<.:.0.1.9.0.9.0.0.9.0.@.0 + & & + : : k l l k S m m n k m m m n k m m n n l n S n k 3 ) 2.0.0.0.:.` 0.0.2.,.E +.2.2.v.J.I.",
"P.H.s.T ' +.*.1.0.0.0.0.0.} = & : & & + k z n m n k S m n n k m m m n k m m z n l n S m m n * h 1.0.9.,.T *.+.) ^ ) ) ;.2.q.B.J.",
"I.C.$.0.2.:.#.} +.&.:.9.+.= O k & & & % m m n m n k S m n n k m m m n k m n l m l n S m m n k : h :.:.] T ] $.,.9.w.2.@.1.,.a.H.",
"J.u.1.0.9.2.0.0.1.$.} E = + O k & : l k m m n m n k S m n b k m m m n k m n l m l n S m m n k m : 9 ' $.1.0.0.2.2.0.0.$.*.9.2.b.",
"N.$.0.9.0.9.0.0.9.9.:.; % % O k : z n k m n z m n k S m n z k m m m n k m m l m l n S n n n k N m o W 0.9.9.0.9.0.9.0.2.+.2.1.t.",
"e.:.9.1.0.0.0.9.0.0.~ o & % O k z m n k m n l m n k S m n n k m m m n k m m l m l z S n n n k m m k 1 :.0.9.0.0.0.2.-.9.@.;.1.y.",
"_ $.{ &.0.0.0.0.0.1.0 % & % O z m m n k m n l m n k S m m n k m m m m k m m z m l z S n n n k m m n + ) 0.0.0.9.0.1.' &._ $.2.e.",
"_ 2.,.' 9.9.0.0.0.@.# & & % + m m m n k m m l m n k S m m n k m m m n k m m b m l z S n n n k m m m j a 2.0.0.9.0.$.@.0.1.+.1.y.",
") :.@.T $.-.*.*.-.T O & & % % A m m n k m m z m n k S m m n k m m m m k m m n m l z S n n n k m m m z ; +.$.$.$.&._ ) &.} _ 1.t.",
"' :._ ^ :.:.:.:.:.T + & & & : N m m n k m m z m n k S m m n k m m n m k m m n m l z S m n n k m m m b u 1.2.2.2.2.2.2.2.:.` 1.t.",
"9.0.9.+.1.0.0.0.0._ % & & & : m m m m k m m n m n k S m m n k m m n n k m m n m l z S m m n k m m m n H 0.9.0.9.0.0.0.9.,._ ,.y.",
"2.0.0.2.*.1.9.9.0._ % & & : k m m m m k m m n n n k S m m n k m m n n k m m m m z z S m m n k m m m n H 0.9.0.9.0.0.0.9.+.~ 1.t.",
"2.0.0.0.2.&.@.@.@.h % & & k k m m m m k m m n n n k S m n n k m m n n k m m n n l z S n n n k m m n b H 0.0.9.9.0.9.0.0.,._ 1.t.",
"2.9.9.0.9.&.:.1.1.E @ $ $ $ 3 B 4 4 4 3 4 B 4 4 4 3 B 5 5 5 6 5 5 5 8 6 8 8 8 8 7 7 8 8 8 8 6 8 8 8 6 a ,.9.0.0.0.9.9.0.1._ ,.y.",
"9.0.0.9.1.] 9.0.0.` w h s h / / _ ` _ / / / ` ` / / / ` { _ / _ _ { ` _ _ _ { ` _ _ _ { { _ _ _ ` } / g ,.0.9.9.0.0.0.0.2.' 1.e.",
"-.1.1.1.*.g :.,.,.! w h a h / / { ` ! / / / } / / / / [ ` ! / / [ [ Q / / / [ Q / / / [ Q ! / / [ / Q a $.*.*.*.*.*.*.*.+.E ,.y.",
"$.@.*.*.&.} $.*.*.T 0 q 0 h ! ! Q d Q ! ! ! Q h Q ! ! Q d Q ! ! Q h R Q Q Q h h Q Q Q J d Q Q Q Q d h w $.:.:.:.:.:.:.:.+.E ,.t.",
"v.0.0.0.0.0.0.0.0.' . . X = 2 2 2 2 2 2 2 2 2 2 2 2 2 2 2 2 2 2 2 2 2 < < < < < - - < - - < = - - < - y 0.0.0.0.0.0.0.0.2._ 1.t.",
"z.0.9.9.9.9.0.9.0.{ + % % % % n z z z : z n z z z : n n b b k n n k b k n m n n l k m n z n k n n z b u 9.9.9.9.2.9.9.9.,.^ ,.y.",
"h.+.*.&.&.$.$.$.$.T + : & : : m m m m l m S n n n k S m m m k m m n m k m m m m z z S n n m k m m n n 3 } &.$.&.$.] $.$.{ g ,.t.",
"x.1.9.2.9.9.9.2.9.` + & & : : m m n n k m A n n n k S m m m k m m n m k n m m m z z S n n m k m m n n r 2.0.0.0.1.+.9.0.1.~ :.t.",
"c.0.0.0.9.9.0.9.0.} * & & : : m m n n l n A n n n k S m m m k m m n m k n m m m b z S n n m k m m n n D 0.0.1.-.:.:.:.:.2.^ :.y.",
"z.:.,.:.:.:.:.:.:._ $ & & : : m m n m l n S n n n k N m m m k n m m m k n m n m b l S n n m k m m m n 8 *.@.T @.-.-.&.) ' E ,.t.",
"} $.*.*.*.*.*.&.*.E + & & : : m m m m l n S n n n k N m m m k n m m m k n m n m z l S n n n k m m m n 3 +.$.@.*.} ] *.$.f ~ 1.y.",
"-.0.0.0.0.0.0.0.0.+.* & & : : m m m m l n S n n n k m m m m k n m n m k n A m m z l S n n m k n A m n D 0.0.0.2.-.-.9.0._ @.2.t.",
"-.0.9.0.0.0.0.0.1._ * & & : : m m m m l n S n n n k m m m m k n m n m l n A m m z l M c c c , c n m n D 0.1.+.*.1.,.@.:._ @.2.t.",
"*.0.0.9.9.0.0.0.9._ $ & & : : m m m m l n S n n n k m m m m l n m n m k n A m m b k D { [ ! | R , n m 3 } ` ^ $.&.&.+._ a { 1.y.",
"&.0.0.0.0.0.9.0.0.@.* & & : : m m m m l n S n n n k m m m m l n m n m l n A m m z F J L d d J y y V n 8 1.9.9.9.9.9.9.9.^ @.2.t.",
"_ 1.0.2.9.0.0.0.0.@.* & & : : m m n n l n S n n n k m m n m l n m n m l n m n m z | F k k l & k K I n D 0.0.0.9.0.0.9.0.` +.2.t.",
"+.9.2.2.2.2.2.2.2.} * & & : : m m m n l n S n m n k m m n m l n m n n l n S n n z [ G n n m l n U P n 8 :.:.:.:.:.:.:.:.E ` 1.y.",
"} _ { ] ] { } } +.T O & & : : m m m m l n A m m n k m m z n l n m n m l n S n n b F [ F v n c G ( V n > ' $.&.*.:.*.$.$.' E ,.t.",
"p.1.0.0.9.0.0.0.0.@.* & & : : m m m m l n S m m n k m m z n k n m n m l n S z n n k Z I P P P K Z n n D 0.0.0.r.r.w.0.0.0._ ;.y.",
"d.9.9.9.9.9.0.9.9.+.* & & : : m m m m l n S n n n k m m z m l n m m m l n S z n n k S n v M x n A n n D 9.9.0.0.0.0.0.0.9.` :.t.",
"h.9.0.9.9.0.0.0.9._ $ & & : : m m n m l z S n n m k m m z m l n S m m l n S z n n k S m n m l n S z b C 9.9.0.0.0.9.9.0.9.` :.t.",
"h.0.0.9.9.0.9.9.0.$.* & & k : m m n m l n S n n m k N m n m l n S m m z n S n n n k S m n m l n S n n C 2.0.0.0.0.0.9.0.9.` *.y.",
"h.-.9.9.9.0.0.0.0.$.$ % % % % l l x x : : z x x x % v x x x , , v x x , , v : : : > v x x x , , v , , e 2.9.9.0.9.9.0.9.9.{ :.t.",
"j.1.0.9.9.0.0.0.0.$.0 t t y h Q Q Q Q Q Q Q Q Q Q Q Q Q ! Q Q Q Q ! Q Q Q Q ! ! Q Q Q ! ! ! ! ! ! / ! g ,.2.2.+.` ,.9.2.2.` :.t.",
"4.{ @.@.+.+.+.+.+.~ 9 L h h / / { $._ / / / } } / / / [ @._ / / ` @._ / / _ | [ / / / } } / / / ` @._ i ) +.} E ` +.+.+._ g :.y.",
"` ,.,.:.:.:.:.:.,.' 0 y 0 s ! / / h Q / / / ! d Q / / ! h h / / ! J h ! / / Q d ! / / ! d Q / / ! h h g :.0.0.r.r.0.0.0.-.' 2.t.",
"*.w.0.0.9.0.0.9.0.$.; 1 1 9 y y y t y y y t t t t t t t t t t t t w w q q t q w t q e q q e q q q q q 0 1.0.0.0.0.0.9.0.:.` 1.y.",
"+.9.2.2.1.1.2.1.1.+.= O o + + : k k k & & l k k k % k l k k & : l k k & & l k k k % z k k k & k z k k 4 ,.9.0.0.0.9.0.0.:.{ 2.t.",
"Y $.&.$.$.+.' $.$.~ @ & % : & m m m m z z S n m m k m m m m l n S n n z z S m n n k S m m m l n S m m B ,.0.0.0.0.9.9.0.:.{ 2.t.",
"$.w.0.0.9.:.-.0.0.&.- & % : & m m m m z z S n n m k m m m m z z S n n z z S m n n k S m m m l z S n m B ,.9.9.0.0.9.0.0.:.{ 1.y.",
"*.w.2.$.*.1.,.&.:.*.< & & & & m m m m z z S n n m k m m m m z z S n n z z S m m n k S m m m l z S n n B 1.0.9.=.@.2.0.0.:.} 2.t.",
"^ *.^ ~ *.*.*.@.^ ^ # & & & & m m m m z z S n m m k m m m m z z S n n z z S n m n k S m m m l z S z n , _ $.@.g ` $.$.&.{ g :.y.",
"_ 1.:.2.q.0.1.1.,.+.- & & & & m m m m z z S m m m k m m m m z z S m m z z S m m n k S m n n l z S z n , $.2.1.1.2.2.2.2.2.^ $.y.",
"*.0.0.0.0.0.0.0.0.:.6 & & : & n m m m z z S m m m k m m m m z z S m m z l S m m n k S m n n l z S n n B 2.0.0.0.9.0.0.9.0.' *.t.",
"*.0.9.0.0.0.0.0.0.:.6 & & : & n m m m z z S m m m k m m m m z z S m m z l S m m n k S m n n l z S n n c *.1.1.1.1.1.1.1.1.^ @.y.",
"&.0.0.0.0.0.9.9.0.:.6 & & : & n m m m z z S m m m k m m m m z z S m m z l S m m n k S m n m z z S n n : _ *.*.*.*.*.*.*.*.T $.t.",
"&.0.9.0.0.0.0.0.0.:.6 & & : & n m m m z z S m m m k m m m m z z S m m z l S m m n k S m n m z z S n m B 1.0.0.0.0.0.0.0.0.' $.t.",
"$.0.1.9.1.-.9.9.9.:.6 & & & & n m n n z l A n n n k n m n n z l A n n l k A n n n k m m n n l l A n n c ,.9.9.9.2.9.9.9.9.` +.y.",
"a.k.k.f.4.i.k.k.k.d.O. . ... .6.6.6.6.o.o.8.6.6.6...6.7.6.6.o.o.8.6.6.o.o.8.6.6.6...8.6.6.6.o.o.8.6.6.X.a.g.f.f.f.f.f.f.f.4.a.c."
};
