/* XPM */
static char *ba76b4d841724b0b8dc525efffb8dcbct61a6YxQW381cLRn[] = {
/* columns rows colors chars-per-pixel */
"64 64 20 1 ",
"  c #31160D",
". c #75452D",
"X c #8E5A3D",
"o c #6D3F28",
"O c #653924",
"+ c #956143",
"@ c #A97453",
"# c #814D32",
"$ c #885438",
"% c #A36D4D",
"& c #9C6848",
"* c #B27C59",
"= c #7B4E37",
"- c #552F1F",
"; c #4A2F25",
": c #432417",
"> c #553A2F",
", c #6E5043",
"< c #674839",
"1 c #DC9760",
/* pixels */
"1****************************@+ @***********@@@@@@@%%@@@@*****@*",
"1@@X++++++++X+X+++X+++++X+++X&# &*+X++XXXXXXXXX$$$=$======$XX&@*",
"*@++*@*@@@@@*@@@@@@@@@@@@@@*=$# &*<@@@@@@@@@@@@@@@@*@@@@@@@*&o@*",
"*@#&*@@***@%&&%%@@@******@@*X#$ +&o*@@@***@*@*@@@@%%@@***@@*@.&*",
"*@=&*@*XOO---OOOOOOOOOOO=@@*$#& +XO*@@$OOOOOOOOOOOO---OO=@@*%=+*",
"*&$&*@*.                -@@*=$% $$o*@@O                 :%@*%$+*",
"*&$&*@*. >,,,,,,,,,,,,<:-&@*=+% =#<*@@o:>,,,,,,,,,,,,,,::&@*%$&@",
"*X=X&@@O >,,,,,,,,,,,,> :+@*=&% .$=@@%. >,,,,,,,,,,,,,<::&@%X=X@",
"@$-::&@O ><==$XXX$$==>>::$@*=%% .+=@@%= ><=$=$XXX$$==<,::X*o;:o*",
"@$:  %%O >,X&@@@%&&XXO> -#%*=%% .&=@@%= >,X+++@%@%%&+,,::$*O  o*",
"%+=<X@&O >,X%%%%&++XXO> -#&*=%% .%=@%%$ >,$+&+%%%&+%&,, ;$@&.O+*",
"%&&@*@&o >,X%&&%&&+&+>> -#+*=%% =%=@&%$ >,X+&+&%%%+&&=, -X%*@X@*",
"%&+&*@&. >,X%+&@&&X%+>> -$X*=%% =%=@&@$ ><X+&&&%%%&+&<, -+&*%X@*",
"%%&%*%&. >,X%X&@&+$%+>; -XX*=%% =%=@+@$ ><X+&&&%%%&X+<, -&&*%X@*",
"%%+&*%%. >,X%X&@&+$%X>; -XX@=%% =%=@+@$ ><$&&&+%%%%$X<, -%&*%X@*",
"%%+&*%%. >,$%X&%&+$%X-; -++@=%% =%=@+@$ ><$&&+X@%%%#X<, -%%*%X@*",
"%@+&*%@. >,$%X&%%+$%X-; -++@.%% =%=%&*$ ><$%%XX@%%%#X<, -%%*%X@*",
"&@+&*&@. >,$%X&%%+#%X;; ;+&@.%% =%=%&*$ ;<$%%XX%%%%#X,< -@%*%X@*",
"&@+&*%@. >,$&+&%%+#%X;; :+&@.&% =%=%&*X ;<$%%$X%&%%#+,< -@%@%X@*",
"%@+&*%*. ;,$&&+&%+#%X;; :+&@.&% =%=@%@X ;<$@&#+&%%%.+,< -@%@%X@*",
"%@+&*%*. ;,$+&+&%+#%X;; :+&@.+& =%=@%@X ;<$@&#X&%%&.+,> -@%@&$@@",
"@@+&*%*. ;<$+&&&&&#%X-; :+&@.+& =%=@%@X ;<$@+#X&&%+#&,> -@%@&=&%",
"@@X&*%*. ;<$X&%&&&$%+-; :+&@.+& =%=@%@X ;<$%X.$&&%X#&<> -%%@&=&&",
"@%$&*%*. ;<=X&%%&&$&+-; :+&@.+& =%=%&@X ;<$%$.$&%%X$%,; -%%@&=&&",
"@+$&*%*. ;>=$+%%&%X++-; :+&@.+& =%=&&@X ;<$%#.X%%&XX%=; -%%@&=&&",
"@+$&@%@. ;>#$$&%&%+X&-; :++&.++ =%=&+%X ;<$&##+%%+$X%,; -&%%+=++",
"@+$&@%@. ;;$$#$%%%&XX>; :+++o++ =%.&+&$ ;<=X#X&%X#$$%<; -&+&+=++",
"@+$&%&%. ;;X+$.#+%%&XO; :+++OX+ =&.++&$ ;<=XX+&##XXX@<; -&X&+=++",
"@+$&%X&. ;;o=ooO-Oo.o>> :+++O$+ =&o++&= ;<OooO--ooo.=;; -&X++=++",
"@X$&%X&o ::           : :+++O#+ =&OX+&=  :         :::: -&X++=X+",
"@X#&%X&o   : :          :+++O.+ =+-X+&= :        : : :: -+X++=XX",
"@X#&&X++%@@@@@@@@@@@@%&+$$$$Oo$ =XO$$$+&&%%%%@%@%%%%&&&+XXX++.XX",
"@X#&&XXX$XXXXX$X$$$$###$#&*&-.# =X-+*@#XXXXXXXXXXXXXXXXXXXX++.XX",
"%$#&&$XO :              :1**..# =$o*@1< : :::: : : :  : -+$++.$X",
"%$#+&$+o ;>;;;>;;;;;;;; :#@+O## =$O+%X: :>;;;;;;;;;;;;> -+$XX.$$",
"%$.++#Xo >,=,=,==,==,>> -O1X:$$ .X:+1O- >,=$=$=,$,==,=<:-+#XXo$$",
"%$.++#Xo ;++X+XXXXXX$>> O=1+:$$:oX-&1oo >,$XXXXXXXXX$X< -X#XXo$$",
"%#.++#Xo ;=X$$$====#=>> o=1+:$$ oX-&1oo >,=======.===#O:-X#$Xo$$",
"%#.++#XO :              O=1+:$$:oX-&1.O ::            : :$#$Xo#$",
"%#.+X#$o::::------O--O--.=1&:$$ oX-%1.o--:--------------O$#$Xo#$",
"%#.++###$$$$$$$$X$$XXXXX$.*X:$$ o$-X1o#$$$$$$$$X$X$XXX$X$##$Xo#$",
"%#.+X##.o.........oooooO.#O--#$ o$OO-o#ooooo.o.o...o.o.o.##$Xo#$",
"@#.++#$O                :###-#$ .$o$.$O                 :##$Xo#$",
"@#.+X#$o ;>>>>>>>>>>>>; :###O#$ .$.X#$O ;>>>>>>>>>>>>>> -$#$Xo#$",
"@#.+X#$o >+,,,,,,,,,,,> :###O#$ .$.X#$O >,,,,,,,,,,,,,< -$#$Xo#$",
"@#.++#$o ><=#=#=#=.##-> :#$#O#$ .$.+#$o ;>=$$##$#$###<> -$#$Xo#$",
"@#.+X#$o ;<#$####o.$#-> :###O#$ .$.+#$o ;>####$###$#$<> -$#$Xo#$",
"@#.+X#$o ;>#####.O##.-> :##$O#$ .$.+#$o ;>#$o#$#####$<> -$#$XO#$",
"@#.+X#$o ;>=##.$oO##.-> :##$O#$ .$.+#$. ;>#$..######$<> -$#$XO#$",
"@#.X$#$o ;>=$..$.o##o;> :##$O#$ .$.+#$. ;>=$..$###$#$>> -$#$$O.$",
"@#.$$#$o ;>=$..$.o##o;> :$#$O#$ .$.+#$. ;>#$..$#.####O> -$#$$O.#",
"@#.=$#$. ;>=$..##.##o;> :$#$O#$ .$.+#$. ;>#$.###.#$##>> -$#$=Oo#",
"@#o.$#$. ;>=$.o##.#$o;; :$#$O#$ .$.+#$. ;>=$.#$#o####>> -X#$oOO.",
"@#o=$#$. ;>=$.o##.#$.:; :$#$O#$ .$.+#$. ;>=####.O####>; -X##Ooo.",
"@.Oo.#$. ;>=#.O#####.;; :$#$O#$ .$.+#$. ;;=####Oo####-; -X#.--O.",
"@o-::#$. ;;.$#o.$$$$#-; ;$#$O#$:.$<X#$. ;;=$$#.O.$$$#-; -X$:  :.",
"@o-:-.#o ;;:--:------:; :$#$O#$:.#o=.$o ;;----::-----;; -X#:  -o",
"@O.=oo#O ::           : :$#$O.$:..O$O$. ::            ; -XOO-ooO",
"%O.=oO.O ::;:;;;;:;:;::::$##-.$:ooO=O.o ::;;:;;;;;:;:;::-#-OO.OO",
"%O..oOoo-OOooOoOOoOoOoOOo.o.-o$:oOO.OooOoOOOOOOOOOOOOOO-OOOOOOOo",
"%Oo.oOOooOOooo......o.o.oOO.-O#:oo-.Oooooo.o.o.oo.o.oooOOOOOoO-o",
"%OO..OoOOOOOOOOOOOOOOoooooo.OO.:oo-.OoOOOOOOoOoOOoOOOOOOOoo.o--o",
"%OO-OOOOOOOOoOoOooooooOOOOOo-O. .#O.oo..o.o.o.....ooooooooOoo-OO",
"@.oOOo.##....#.###..oOOOOOOOOO. .$##......######.oOOOOOOOOOOOO-o"
};
