/* XPM */
static char *_c271de83ce041eabd4791d54a78be54C6mr0aBH7aAq511J[] = {
/* columns rows colors chars-per-pixel */
"64 64 256 2 ",
"   c #240102",
".  c #2C0303",
"X  c #290A09",
"o  c #320202",
"O  c #3A0205",
"+  c #340B0C",
"@  c #3B0B0D",
"#  c #370709",
"$  c #2A1507",
"%  c #39140C",
"&  c #340D14",
"*  c #3B0C13",
"=  c #390511",
"-  c #2E1614",
";  c #351314",
":  c #3C1414",
">  c #3C1B15",
",  c #3C141B",
"<  c #3C1B1C",
"1  c #351A1A",
"2  c #2E0E13",
"3  c #3A241B",
"4  c #3B1C21",
"5  c #2F1C20",
"6  c #3C2423",
"7  c #3A2926",
"8  c #3C3736",
"9  c #322E2B",
"0  c #1F0000",
"q  c #440B0B",
"w  c #470908",
"e  c #55090A",
"r  c #45120C",
"t  c #49170D",
"y  c #57150D",
"u  c #430C15",
"i  c #480D16",
"p  c #441314",
"a  c #4C1312",
"s  c #431A15",
"d  c #4C1B14",
"f  c #43141B",
"g  c #4C151B",
"h  c #441C1C",
"j  c #4C1D1B",
"k  c #5B1315",
"l  c #5C1B14",
"z  c #53151B",
"x  c #541C1B",
"c  c #5A1C1B",
"v  c #551715",
"b  c #570916",
"n  c #6A180D",
"m  c #6B1B15",
"M  c #631C1A",
"N  c #671817",
"B  c #761B18",
"V  c #6F130E",
"C  c #4B251D",
"Z  c #462419",
"A  c #53221C",
"S  c #5B221C",
"D  c #55281A",
"F  c #57371E",
"G  c #63231D",
"H  c #6A221C",
"J  c #68281B",
"K  c #77261C",
"L  c #7E321C",
"P  c #441C22",
"I  c #4C1B23",
"U  c #4B1722",
"Y  c #531C22",
"T  c #5A1D24",
"R  c #761B22",
"E  c #661D22",
"W  c #442323",
"Q  c #4C2423",
"!  c #442A24",
"~  c #4C2A25",
"^  c #45252A",
"/  c #4B252A",
"(  c #442C2A",
")  c #4B2C2B",
"_  c #532323",
"`  c #5C2323",
"'  c #532B25",
"]  c #5B2B24",
"[  c #53242A",
"{  c #542B2B",
"}  c #5B2C2B",
"|  c #5A252B",
" . c #4C322D",
".. c #48352C",
"X. c #54322D",
"o. c #5C332C",
"O. c #593729",
"+. c #4C2D32",
"@. c #482A34",
"#. c #542D32",
"$. c #5C2D33",
"%. c #5A2934",
"&. c #4C3333",
"*. c #4D3B35",
"=. c #483737",
"-. c #543433",
";. c #5C3434",
":. c #543A35",
">. c #5C3A35",
",. c #53353A",
"<. c #5C343B",
"1. c #543B3C",
"2. c #5B3B3C",
"3. c #632423",
"4. c #6B2423",
"5. c #642B24",
"6. c #6B2B23",
"7. c #632B2A",
"8. c #6C2C2B",
"9. c #67262A",
"0. c #732522",
"q. c #732B24",
"w. c #7C2B23",
"e. c #722C2B",
"r. c #792A2A",
"t. c #63322C",
"y. c #6B332D",
"u. c #673629",
"i. c #73332D",
"p. c #7B332C",
"a. c #793628",
"s. c #662C34",
"d. c #772B32",
"f. c #633433",
"g. c #6C3432",
"h. c #633B34",
"j. c #6B3A34",
"k. c #63353A",
"l. c #6D353A",
"z. c #633C3C",
"x. c #6B3C3C",
"c. c #733434",
"v. c #7B3533",
"b. c #743B35",
"n. c #7C3B34",
"m. c #733C3B",
"M. c #7A3B3A",
"N. c #78353A",
"B. c #4D433B",
"V. c #54433C",
"C. c #5C423D",
"Z. c #5B4538",
"A. c #574935",
"S. c #644235",
"D. c #63423D",
"F. c #6B433C",
"G. c #694638",
"H. c #7B443C",
"J. c #76453A",
"K. c #694A32",
"L. c #543D43",
"P. c #5C3D42",
"I. c #5A3844",
"U. c #4D3C44",
"Y. c #633C43",
"T. c #6B3D43",
"R. c #683742",
"E. c #753D41",
"W. c #3D4341",
"Q. c #4A4342",
"!. c #544342",
"~. c #5C4343",
"^. c #594949",
"/. c #595253",
"(. c #644343",
"). c #6B4343",
"_. c #634A43",
"`. c #6C444A",
"'. c #6A4B4B",
"]. c #674A47",
"[. c #734443",
"{. c #724C44",
"}. c #734C4B",
"|. c #7A4847",
" X c #6A534B",
".X c #7D544C",
"XX c #77554A",
"oX c #784E55",
"OX c #6A5856",
"+X c #795854",
"@X c #684C50",
"#X c #7A6252",
"$X c #725F65",
"%X c #8B1708",
"&X c #871D15",
"*X c #941D18",
"=X c #901807",
"-X c #8C231B",
";X c #872618",
":X c #94231C",
">X c #99281B",
",X c #8E3118",
"<X c #A32819",
"1X c #8C2C24",
"2X c #852A25",
"3X c #942C23",
"4X c #992A26",
"5X c #84342C",
"6X c #8C332B",
"7X c #843A2B",
"8X c #893528",
"9X c #963529",
"0X c #843C35",
"qX c #8B3C34",
"wX c #863938",
"eX c #963934",
"rX c #8E2E34",
"tX c #A72C28",
"yX c #A5342A",
"uX c #A83933",
"iX c #B53B39",
"pX c #941D1F",
"aX c #844235",
"sX c #824339",
"dX c #8A473B",
"fX c #95473B",
"gX c #914733",
"hX c #A54538",
"jX c #B7433D",
"kX c #863B43",
"lX c #864944",
"zX c #984A43",
"xX c #85544A",
"cX c #975346",
"vX c #875A54",
"bX c #985752",
"nX c #A54B45",
"mX c #A85749",
"MX c #B65349",
"NX c #83635B",
"BX c #886658",
"VX c #91675A",
"CX c #8A6B63",
"ZX c #956864",
"AX c #887267",
"SX c #94766A",
"DX c #9A7972",
"FX c #A47A74",
"GX c #A6766E",
"HX c #985F5F",
"JX c #CC6A63",
"KX c #9A8375",
"LX c #9D826D",
"PX c #A4867A",
"IX c #D4817D",
"UX c #AF8D85",
/* pixels */
"Z FXVXi.R rXu.C A t d a ` f.} ).<.@.4 @.=.7 oX[ GXJX1X:X>X%X<X<X=X>X,XJXIXq.lX<.9 W.9 9 P $.j.} k._ g a o A j a e.v.v ] NXKXC Z ",
"F.SXvXM.m R y.d r x a @ g : + $.<.P &.@.7 &.<.$.v m 6X-X-XyXyX>X=X,X,Xa.p.9.l.Y.8 9 8 5 #.[.] : : + p z r t r x 9.c x x.D.BX{.# ",
"O.BXLXGXR B p.y k v x } > X > < / P (.2.6 +./ h.x 9.0.2X1X;XMX,X,X1Xa.J S g.| P 5 8 OX+.U u @ % X 1 [ z c a w 5.M.q _ ZXNXvXvXw ",
"o.VXPXGXM B wXM k 9.d { C.6 > P o h -.2.1 1 < Q j.7.e.wXzX2XmX;XfXqXS u.o.o.' W 4 1.I.#.U @ Q 3 - OX).O g.3.w b.c.a ` ZXFXvXJ.y ",
"n.vXXX.X6.i.b.t c q %  .( ! $.p o r C >.~  .! > ' J.a i.cXy cXH qXq.A S.:.! ! -.^ <.P U O . h ( =.6 ;.s . s O.r 8.E d.M.xXxXt.d ",
"n.j.C S.i.e.5.t c S > 1 7 6 Q | j @ s Z :. X~ Z ' } [.S y.i.G i.v.5.S.X.3 ! 1 2.+X/ * u g k.P ) 6 1 : + s Z s A v.k e.s.d O.t.] ",
"H.t.3 O.l N i.i.r.M ] ! - ( -.W ' s % . Z X.~ Z + h x.m.J.m.j.7.[.j.z.> - 3 ! >.;   @ g I Q < 1.8 7 ~ 7.g.y.] g.c.w a h.% s 5.y.",
"F.S.A.{.M m n.4.5X0.y.C 3 *.( 1 >.F.: . ; X >.{ ~ : j t.A A 5.S _ ;.W ! -.1 ) X Z & : z.oX/ / 6 7 ( ] 8.4.p.G 5.c.7.j {.X.h.b.5.",
"O.CXSX{.q.K i.6.H r.M c.h.! 3 7 <.2.<./ Q W , ~ h s t.j v y.b.y.~ / { / <.{ . ) ! ! (  .&.) ^ 4 1 (.g.k wX0.l i.n.` ' _.KXAXj.t ",
"F.PXBXvXm 5XJ.dX0XfXm 4.7.{ ! 6 4 , P ^ / < + : Q Q |.u.v lXHXb.W P.oX%.[ +   > W 6 7 7 6 3 < h z.t.M N eXqXwX0X4.x ] #X XDXvXZ ",
"F.FXFXxXN N J.VXdXcX2XB 4.g.} ~ ^ @.I.@./ #.P . Q @ ] t.S n.lXb.~ ^ $.i Y * Q -.^ ( ..7 3 3 / } y.l B 2X6X5XfXdXq.k | .XSXAXD.> ",
"' F..XJ.0.K dXxXL eX6X2Xr.e.] ' ^ @.I.@.+.`.T.I { : o d y.y.H b.;.; = u %.U 2.(.^ ) ( 7 6 6 { f.G m 6XeX1X;X6XqX0.M t.h. X..~ ~ ",
" XSXSXGX0.K w.fX9XyX4X-X2Xi.j.XX~.@.,.I.Y.T.T.T.;.X.: . d 7.8.` : + f s.k.#.P.~.#.,.,.&...-.f.g.J.0X1X:X:X4X3X6Xr.S h.CX XNX[.w ",
").Z. .J.q.2X6X1X*X<XuXhXmXdX6.j.'.L.P.Y.Y.Y.k.z.D.>.-.+   j |.p   : } x.Y.@X^.L.Y.T.Y.z.D.).m.y.H.fX9X:X>XtX-X1Xw.l } >.> Z l.c.",
"[.} X.O.6.n 8X-XtX<XyX3XeXw.K 0XX.1.P.#.;.).z.(. XC._.3 X : oXg + h T.;.~./.Q.=.I.l.s.s.z.F.g.G n.fXhXuX>X>X&X;X5Xy x Q ;.s 7.d.",
"lXt.> S.H 2X2X;X*XtXMXMXMXqXK v.(.!.P.<.x.k.;.}.C.~.~.X , : T.* o r |.z.OX^.Q.^.<.k.s.s.x.[.l.5.dXgXhXMX>X:X&X&X2XN 8.[.: ~ F.7.",
"xXFXNXvXB eX-X-X>X<X>X3XfXm wXM.].^.<.T.R.s.).)._. X .. : <.Y.;.i O | }. X^.=.V.~.-.#.T.}.).T.m.q.nX9X&X=X=X*X*X6X0.5.XXCXAXOX3 ",
"F..XSX|.eX-XhX3X%X=X>X9XmXwXM.l.^.^.^.<.x.|.).;.D.' : p } k.%.T s.g O { D.&.C.V.~.'.].z.Y.).Y.} sXgX6X3X>X<XtX3X2Xl j >._.~.V.3 ",
"F.vXCX+X4.m qX6X>X<XyX>X2Xe.7.(.Q./.=.!.^.(.}._ _ o @ m.N.b b d.z } : + p _ ).].'.~.~.(.(.P.k.l.6.y K 3X&X*X4XeX0.c X.+XNX+X).Q ",
"BXUXKXKX` n.sXcX-XtX4X3X0.8.$.(.!.8 Q.!.!.,.I | o x E.l.c N R N _ (.}.p O g g [ ].-.&.P.^.P.Y.[.b.J 7X6X-X1X1XfX4.x ;.SXUXDX|.j ",
"{.PXKXNXM.v.aXdXeXhXB w.y.z.Y.,.-.P.( ].-.  g Y Y x..Xh.x 9.r.e z.D.}.f.} Y o u %.2.~.1.2.Y.(.x.M.6.J J 7XdXa.H.i.S ] vXGXZX|.x ",
"J.ZXCX{.b.i.lXH.eXnXm e.} ) L.=.<.$.Y.#.h * * [ [.;.h.[.g.G m e.} D.;.x.x.Y g = f #.~.].P.-.,.Y.j.b.6.J H.dXb.H.t.A [ [.|.[.|.8.",
"v.g.{ h.r S u.] N w.0.c.<...8 8 -.k.j U g u #.) { ;.f.g.e.q.q.v.y.[.h.;.{ _ { + : * U $.,.( +.P.-.>.t.5.G l l l A s Z { ' | c.6.",
"kXv _ |.l 4.J.v v.e.9.| &.=.9 8 -.j O O i [ -.,.-.;.7.c.wXp.q.n.dX3.t.} { ;. .+.& # # = P ,.,.( =.( Q j.6.G c.S 7._ h Q h C t.` ",
"o.vX+XJ.R rX4.b.c.s.-.-.@.@.,.,.& j u g %.T.) :.2.h.H.v.fXK aX7XqXr.wXc.X.:.) (.<., & , f U #.,.) -./ o.} t.c G 9.c.z l.[.{.Z.Z ",
"~ NXDXxXV rX4.a 9.$.+.^ &.Y.%.u @ _ j { ;.z./ -.o.[.bXsXzX7XcXgXfXeXzXe.o.>.) ) &.,.6 ; f = * <.+.&.^ ' A A a k 9.c i [.vXNX X$ ",
"Z.CXUXBXe V G v v T Y %.R.$.g q = _ ' -.:.>.{ f.c.lXlXaXzXfXmXeXnXeXzXi.wXm.;.......*.^ & # u U ( 1.-.Q a k k k 8.i g |.CXCX#X$ ",
"Z. X#Xh.y H i.d g 9.s.%.%.u O z U ;.:.*.*.:.t.M.bXwXq.w.fXfXhXeXhXK 6X5XbXM.f.2.*...1.,.6 h z = - 7 +.{ c v e k 3.i Y x..XF._.% ",
"X.XX#Xu.m 6Xi.q z l.$., , f a T z.~.!.B.B.:.j.n.mXeXB &X9XyXiXtX9XV 1X6XnXv.y.o.2. XV.*.2.} i i & X ; ~ o.p q v 8.E 9.g.|.S.O.3 ",
"} vXBXH.m V G ` ` [ , & ^ ;.f.h.>.,.B.*.C.h.J.0XeXeX3X&X*XtXtX:X-X;X9X6XzX0XM.7.h.2.:.&.{ { ' ' #.P + . Z C A A 7.T T g.vX|.t.C ",
"d.M t i.m m 5.] Y u * ^ !.^.Z.D.#.I %.$.l.g.sX0X8XhXuX4X*X&X1X;X-X9XfXeXfXsXM.g.s.U [ } Q  .~.2.Y.<.Q   % Z ' _ A q i ` 3.8.3.S ",
"wXN w i.y w.b.r @ U $.2.V.^.A.*.<.[ s.9.c.i.sXaXfXMXiXiX4X&XB ;XyXuXhXnXfXp.i.g.7.} x Y 2.2.:._.#.^ { ~ Z 0 . Z o.j ` 3.o w c 5.",
"D xXj.M r.qXv j X ~ ;.>.Z.A.A.Z.2.P #.} j.5.aX7XnXhXMXMX4X&X&X3XuXjXhXmXqXn.y.h.C X.;.~ X.2.2.oX,.^ ^ ! % . @ d ] ] x _ _ C D Z ",
"S.BXVXn.N R k _ % X + ~ _._.Z.D.+.+.Y.) { t.lXaX8XuXyX:X*X:X-X-X:XyXeXeX0XsXj.O.>.Z  .) < #.x.<.P.,.<   X > d t 7.3.a 7.vX.XO.$ ",
"Z O.{.j.e R e.` } Q : % ( C.z.k.<.,.(.(.z.t.b.aX5XeX&XV -X-X9X;X&X&X1X2XaXH.j.' D.>.:.) #.;./ / @.6 2 ; C C d A g.w w ` } S.G.$ ",
"{.vXSX.Xk r.e.w T f.} ; X - f U z.-.>.'.).h.j.H.zXqXB &X1X-XhX1X;XV B w.dXj.t.o.h.(.D.-.2.{ + ;   2 ; ! X.p O d ` w T E.t.u.G.% ",
"O.BXLXxXG wXd.k a ` f.;.7 X o i P X.-.-.X.z.F.H.lXq.K 5X6X8XMX6XeXm K q.0Xy.o.z.;./ 2.-.1 ; &   1 1.2.{ { A a x c 9.T m.GXvXo.d ",
"K.SXLX{.S r.4.M k 9.f.z.!.&.I U . < { X.,.) ;.F.m.8.0XaXqXqXmX2XfXp.n.6.8.g.} ;.-./ / < X 2 ; ^ @.&.) W j r O q 7.` i 7.ZXvXu.d ",
"u.S.K.O.t H M k 9.c.k.#.1.^.<.I + + C X.(./ { z.x.m.lXaXfX7XgX7XcXaXlXc.} x.[ } $.#.4 X , P 4 ~.L.&.) >.f.A a v 7.a x m.x.F.F.d ",
"h.D O.u.l q.p.i.M.M.E.`.@X!.I.Y.h : s + z.z.`.).[.l.|.i.cXa.w.cXlXj.M.H.j.{.{ T.$., 1 1 , / &.,.^.~.(.z.f.u.5.v 3.x p A j d ' D ",
"G.' C H.H r.q.i.b.t.m.x.~.!.=.,.z.s + + + / <.{ [ f.j.b.dXaX7XaXb.J.h.f._ | z.: X X & P @.&.) ^ 1.:.2.o.5.5.c.S 7.t.g ;.C C O.Z ",
"G..XxXH.m 5Xi.l 5.u.c.E.(.!.Q.1.(.).f + + f * ;.x._ 7.m.6.J p.q.c.} h.z.} _ h ; ; 2 , #.,.+.&.P.:.>.>.D y.5.G l ] t.Q h.~ ' >.C ",
"X.DXUXlXe K dXdXJ.sXe.c.z.1.^.!.( z.;.T./ / @ f x.x.j.t.3.y y G ] Q j.h./ :   & 4 +.1.,.#.<.2.2.-.o.t.A aX0XH i.S d + D.NXAX{.  ",
"+XPXFXH.m K n.aXcXdXH 4.t.D. X~.].'.].`.{ I @ o p h.j.] 7.c e E A } l._ ; X   < ) P.~.,.#.<.2.;.o.D 6.S qXgXw.dXG j % >.XXBXXXZ ",
"+XSXDXvXv.w.7XfX7XK 2XK i.|.F.(.@XOXP.W ).[ @ p h p ' f.x x T i 7.f.Q h : + W +.~.&.+.P.(.,.;.x.t.y K n K 2XK 5X6.] ' +XNXSX{.% ",
"2.].].h.G w.8XeX;XB 3X2Xq.b.y.[.!.Q.L.) oXx.} _ ;.s : _ | T Y z s.x o h ) h ,.1.].1.+.2.(.>.;.f.i.n 2XB V &X;X8Xl v C >.~ ;.o.' ",
"`.CXAX+Xv m 6XhX4X:X4X9X5Xi.r.M.OXQ.^.~.2.;.[.o.o.o.: @ | t.9.E.Y q p ;.2.,.1.*.^.~.C.,.>.z.2.] p.5X6X&X-X&X3X1X0.y j ).XXvXz.C ",
"oX+XOXNX5.5X1X3X>X>X:XnXmXdXqXg.V.^.^.C.z.z.z.{.{.{.D.: . [ R.| q p ).}.C.@X!.&.!.2.>.2.z.k.h.g.a.fX6XB >X&X-X;X0.c } XX{.}.z.f.",
"T.<.C.).e.eXw.6X4XtXuX9XqXq.aXJ.Z.~.2.h.l.|.}.(.'. X).{ * I oXU o ).).:.OX!.!.^.P.<.k.m.m.m.g.5.u.a.aXgX;X;X9Xn p.u.h.>.Z s o.j.",
"}.#.) h.v.eXw.2X4XjXJXJXmXi.n.J._._.z.x.x.T.).'.OX:.(.#.+ k.HXU @ ;.z.,.OX@X=.1.Y.<.k.l.l.m.m.5.H.cXfXhX9X3X1Xm q.t.~ X.:.X.f.f.",
"+XoX X{.0.5Xw.8XuXtXyXeX6XH n.|.-.*.2.`.`.T.).}.+X(.].) . } E.g @ Q ].].'.@X&.~.~.2.;.;.;.j.j.5.5.aX8X;X3X:X&XK n.d >. XZ ) .X_ ",
"}.AXSX.XM w.7XeX3X>X4XnXmXfXsXj.z.L.~.^.~.2.<.z.<.(.) > s t.9.s.# ; #.`.<.Y.;.2.~.C.:.-.{ ;.h._ H.fXeX;X3X-X-X2XH d ' +XCXCXvXC ",
"z.+XXXG.N w.7X8X3XyX4X9X2Xa.aX|.`.^.U.U.L.].`.T.$.z.X > h.J.v.c./ , & $.$.l.T.;.~.~.V.*.*.2.z.} G m w.B *X*XeXeXp.g.o.2.D.:.X.Q ",
"CXDXAXBXn.qXfXzX1XuXuXeX5Xp.n.x.<.L.U.U.^.@XY.{ } ;.> O.S.J.bXM.x.+., %.g Y T.;.2.V.B.B.*.1.P.$.c.0.eX1X4X-X4X6Xv.x o.CXSXCX+XC ",
"NXPXKXBXH H aXfXeXeX2X0Xi.b.j.f.Y.I.^.^.^.,.,   : ;.).D.>.J.HXlX;.+.<.{ # . Q { >.*.*.*.=.1.L.<.| M p.B hXeX6XeXe.y.h.NXDX+XF.h.",
"].UXKX{.k r.cXdXnXzXq.n.u.j.h.(.P.,.,.1.1./ , + h }.CX} f.m.b.t.<.,.+Xz.h + : / Z.-.:.1.1.1.L.2.;.7.i.N nXeXw.qXv.O _ ZXCXvX+XC ",
"}.}. X}.9.5XM.M.wXlXc.|.).C.2.(.,.-.`.<.Y.Y.< ^ (.).h.f.} t.t.h.;.#.2.(.2.1 $ 2.! z.`.>.+.1.L.+.:.X.t.5.n.H H q.5.x o..Xh.o.{.' ",
"}.2. .{.v.wXM.m.c.bX|.z.:.1.1.( 2.}.f.f @ * / >.-.{ x.l.m.J.o.h.).<.) ! &.1.1 X : * { `.z.<.P.L. .-.o.] 5.G 6.i.5.] t.h.j _ F.A ",
"x.;.~ ).4.kXg.7.c.E.z.,.!.=.!.1.X.o.p o @ Q 2.2.X.{ E.c.lXlXu..Xx.j.h.! ( V...;   p f U $.#.+.1.( :.:.o.u.j.5.5.t._ ] ;._ } j.s ",
"h.vXNX.XN wXc.] m.l.;.-.!.7 =.&.> . q @ [ }.-.-.z.f.M.e.0Xi.D u.b.y.J.h.! ( &.2.< , f * . P <.) ( &.! ' ' ] v d g.p j [.vX.Xj.% ",
"C VXDX|.w N ` r ` g.k.) ,.&.&.< : o ' { X.2.W { f.g.e.p.zXq.a.J cX6.6.j.o.) ) 2.+.P.f . : : : 2.1.:.! ~ j d r S 8.q x .XZXZXF.% ",
"G.SXPXvXm B 6.x a 3.t.;.z.#.[ h p h -.'.(.) ;.h.7.8.H a.fX7XmXaXfXK H 5.y.k.#.+.@X@XP.W + * : # ^ +.-.;._ t q ` 7.x } [.vXBXS.% ",
"K.XXBXJ.0.K 6.t M 8.7.f.{ @ # u [ ) 1.OX@XC.).l.N.q.q.H L K hX;XL L q.M 9.l.$.<.L.$X^.6 / Q o o + ; h Q ` v q a 3.z 7.j.F.{.O.Z ",
"F S.J.u.K B 6.w e 8.S d . o O q T.#.@X^.=.!.;.l.e.N 5XK L ,XhX;Xn K w.m E s.| <.U.=.8 =.C.X.x | f & @ # | 7.7.c T w Y j.[.F.C C "
};