/* XPM */
static char *out[] = {
/* columns rows colors chars-per-pixel */
"64 64 255 2 ",
"   c #2B0F07",
".  c #240C0C",
"X  c #2B0F0E",
"o  c #3A0A0C",
"O  c #27110A",
"+  c #2E100E",
"@  c #37140E",
"#  c #390E11",
"$  c #2E1110",
"%  c #291819",
"&  c #331110",
"*  c #3B1211",
"=  c #391B19",
"-  c #2A201F",
";  c #3A221D",
":  c #261D22",
">  c #3D1E21",
",  c #2C2529",
"<  c #332224",
"1  c #3C2223",
"2  c #39292A",
"3  c #39302F",
"4  c #342D32",
"5  c #393338",
"6  c #440E0F",
"7  c #5A0F06",
"8  c #540F0E",
"9  c #5B0D0D",
"0  c #45140E",
"q  c #4C110F",
"w  c #52100F",
"e  c #5B150E",
"r  c #431211",
"t  c #4C1211",
"y  c #471916",
"u  c #431C1B",
"i  c #4C1C1B",
"p  c #531212",
"a  c #591B19",
"s  c #630D0D",
"d  c #6B0E0F",
"f  c #66140D",
"g  c #74100F",
"h  c #6D0F10",
"j  c #631312",
"k  c #6C1312",
"l  c #681C18",
"z  c #741212",
"x  c #7C1415",
"c  c #771C18",
"v  c #49241C",
"b  c #592811",
"n  c #53231D",
"m  c #5A2519",
"M  c #662619",
"N  c #6B231E",
"B  c #76251B",
"V  c #68351B",
"C  c #76351B",
"Z  c #4C1E20",
"A  c #442222",
"S  c #4C2423",
"D  c #442B24",
"F  c #4C2A26",
"G  c #44272A",
"H  c #442B2B",
"J  c #4C2B2B",
"K  c #542523",
"L  c #5B2422",
"P  c #542A25",
"I  c #5C2B25",
"U  c #542C2A",
"Y  c #5C2C2A",
"T  c #48342B",
"R  c #4B332C",
"E  c #54322C",
"W  c #5A352A",
"Q  c #502F30",
"!  c #4A3835",
"~  c #593835",
"^  c #632422",
"/  c #6B2523",
"(  c #642A25",
")  c #6B2B25",
"_  c #622728",
"`  c #632D2B",
"'  c #6B2D2A",
"]  c #742A24",
"[  c #782925",
"{  c #732D2A",
"}  c #62322D",
"|  c #6A3528",
" . c #73332C",
".. c #793629",
"X. c #643431",
"o. c #6D3432",
"O. c #6A3935",
"+. c #643C3A",
"@. c #773835",
"#. c #7B3A34",
"$. c #7E461B",
"%. c #4B443E",
"&. c #58443B",
"*. c #6B442A",
"=. c #77462A",
"-. c #7E5226",
";. c #684638",
":. c #774739",
">. c #775336",
",. c #4C3C45",
"<. c #603E43",
"1. c #4B4547",
"2. c #564847",
"3. c #5A544C",
"4. c #504952",
"5. c #5E5B54",
"6. c #674A45",
"7. c #774744",
"8. c #68544A",
"9. c #78574B",
"0. c #625D54",
"q. c #6B5A55",
"w. c #7A5A54",
"e. c #7C614C",
"r. c #676156",
"t. c #6B655B",
"y. c #6E6A5E",
"u. c #77675A",
"i. c #6A6865",
"p. c #736D62",
"a. c #796A63",
"s. c #767164",
"d. c #7A7465",
"f. c #7A766A",
"g. c #7E796B",
"h. c #88110F",
"j. c #821516",
"k. c #861817",
"l. c #8C1A1A",
"z. c #931B1B",
"x. c #9A1B1A",
"c. c #B2120D",
"v. c #A81C17",
"b. c #B41912",
"n. c #87241B",
"m. c #98241D",
"M. c #90361E",
"N. c #A9231C",
"B. c #B3231C",
"V. c #AA391B",
"C. c #A71E20",
"Z. c #B01F21",
"A. c #862B25",
"S. c #972B24",
"D. c #863727",
"F. c #97352B",
"G. c #863834",
"H. c #933A36",
"J. c #A42922",
"K. c #BB2821",
"L. c #A73529",
"P. c #DD2C1E",
"I. c #CF3222",
"U. c #8C491F",
"Y. c #884426",
"T. c #964D2D",
"R. c #885624",
"E. c #874638",
"W. c #875C35",
"Q. c #A54B32",
"!. c #95632A",
"~. c #8B623A",
"^. c #94693B",
"/. c #A67536",
"(. c #AD7230",
"). c #D75222",
"_. c #E64825",
"`. c #CD6723",
"'. c #855848",
"]. c #985347",
"[. c #91534A",
"{. c #86675A",
"}. c #926B50",
"|. c #A5784C",
" X c #A16452",
".X c #867465",
"XX c #8C726A",
"oX c #837D6D",
"OX c #957765",
"+X c #867D73",
"@X c #A98455",
"#X c #B18552",
"$X c #91846C",
"%X c #868172",
"&X c #8A8575",
"*X c #8D8878",
"=X c #8E8A79",
"-X c #958775",
";X c #928D7C",
":X c #98917D",
">X c #A78D6F",
",X c #B69779",
"<X c #B7A17C",
"1X c #C6924E",
"2X c #C19673",
"3X c #928A81",
"4X c #999583",
"5X c #989584",
"6X c #9D9985",
"7X c #A79783",
"8X c #A19B86",
"9X c #A29E8A",
"0X c #B99F84",
"qX c #ADA387",
"wX c #A5A28C",
"eX c #A9A58D",
"rX c #B5A689",
"tX c #BEB18D",
"yX c #AAA693",
"uX c #ADAA93",
"iX c #B1AD94",
"pX c #B6AD96",
"aX c #B6B29B",
"sX c #BAB59B",
"dX c #B9B6A1",
"fX c #BBB8A4",
"gX c #BDBAA4",
"hX c #C7B18F",
"jX c #C2BDA3",
"kX c #C8BDA4",
"lX c #C1BEAA",
"zX c #DFC69A",
"xX c #C5C2A5",
"cX c #CBC4A6",
"vX c #C5C2AB",
"bX c #CAC5AB",
"nX c #CDCAAC",
"mX c #D6CBAB",
"MX c #C9C6B1",
"NX c #CDCAB3",
"BX c #CCC9B7",
"VX c #D2CEB3",
"CX c #D1CEB8",
"ZX c #D5D2B4",
"AX c #D5D2BA",
"SX c #DBD7BA",
"DX c #E0D2AA",
"FX c #E4DCB9",
"GX c #D9D7C3",
"HX c #DCDAC2",
"JX c #E1DCC3",
"KX c #E6E4CA",
"LX c #EBEBD6",
"PX c #F0EFD8",
"IX c #F6F8E9",
/* pixels */
"] a a.3X3XX.p ` H.G.OX7.Z a ^ u - , , , < 2 &.u.u.-XwXaXuX9XyXdXfXfXlXdXaXyX9X9X:XuX:X=Xs.%.T b b n m 7.w.G.G.Q h i a.f.i.2.6 A ",
"n.k w.3Xa.K t X.H.{ 7.7.K / K : % - : 3 8.y.&X;X4XyXdXgXfXuXuXfXlXMXlXfXfXdXyXyXeXuXsXiXiXiX:Xd.>.n y {.9.{ G.X.t u 2..Xq.U s ` ",
"/ a '.i.t.A.c o.[ Z Z ^ / a , : % - 8.;X:Xf.y.s.=XwXdXgXlXfXaXfXMXMXMXMXMXvXdXiXiXsXsXxXxXxXsXsX7XOX~ ` = Z [ X.a ^ 4.i.i.K c F ",
"Y K +.Z ! A.k.X.[ / [ [ K < < : < &XtXuXeX%Xy.y.&X5XyXfXvXlXgXxXvXMXMXMXlXfXdXaXsXsXxXnXnXZXZXxXyX9X:X:.a a ^ U d c ! : Q U y S ",
"_ [ +./ Y  .j X.L K K A 4 4 ` 2 y.aXuXuXuX:X%Xy.g.6X9XuXtXiX<X:XrXtX<X<X<X:X<X<X<X<XiXxXxXZXDXmXxXsXeX$X| a a U j / D q A J y Q ",
"^ z.w.,.6.` p X.> = : > < , H ! =XiXiXuXuX:X:Xd.e.{.}.~.}.@X@X|.@X@X@X@X@X/./././././.@X<XzXDXcXcXnXxX;X! % = U r K U 1 ~  .e ; ",
"Y [ XX3XXX' k. .u : S K : < > 2 =XiXiXiXqX>X/.W.-.W.W.!./.@X@X@X@X@X@X@X@X/././.(.(.(.(.(.1X1X<XhXnXxXuX&.% = _ k K w.5.a.{ e 1 ",
"Y L OX5XXXo.x. .A G [ #.Q L ' J ;.6XeXeX@X!.R.R.!././.!.!.~.!.~.~.~.^.^.R.-.-.-.R.!.(.(.1X(.(./.#XtXiX>XS % = X.h.K q.g..X` y G ",
"{ _ XX3X3X+.k o.u _ E.G.L A ~ r r .X:X>X!.!.!.(.R.$.$.*.W V ;.*.*.>.>.>.*.V V b b b V U.!.(.(.`.(.$XuXOX{ Z u ` d U a.f.+XQ y = ",
"G.x G. XOXX.p X.> , M a ; y * = v 8.;X:X$X$Xe.V b ; b *.*.W *.*.*.>.>.>.>.*.*.*.0 @ 0 b V *.~.@X,XaXrX..i 2 A Y 6 U OX{.7.K k F ",
"[ l 8.+XXX/ x X.1 : S K y # Z A +.O.s.s.&.0.r.5.&.%.T *.>.>.~.~.~.~.~.~.~.-.~.W.*.*.W *.e..XoXd.;XnXXXm < : A Y j L 9.{.+.i c G ",
"X.L 6.G.<.n.x X.> > r 6 6 S P U I n 5.5.%.0.0.5.0.y.s.s.d.oX-X$Xd.u.e.u.u.u.s.d.u.y.s.g.%X%Xs.s.:XrXU y = : = Y g N 5.w.0.> i ; ",
"_ c @.a N [ j ~ i o * y Z D ;.:.T , T &.%.3.3.0.y.s.oX=X6XyXwXwX:X6X4X4X5X5X9X6X=XoX%X%Xg.s.s.y.{.*.@ & o # A U d ) K l Y Y y H ",
"_ z.o.c X.K t X.y o G ! J D :.>.T , P M | &.%.2.3.r.y.d.*X4X6X5X:X;X:X:X=X*X:X=XoXs.s.y.r.>.*.V C V R ! # o A J o Y L y L [ a 1 ",
"_ c 6.{.q.L z.' Z u o o K R 7.>.F 2 < M k.b v 3 3 5 %.%.3.t.u.s.s.s.s.u.y.t.t.0.%.&.%.T P M B C C F * & o = S ( j J 6.@.~ N j 1 ",
"X._ '.XX'._ S.o.A G i 6 a I } ~ o.L 4 D k.s @ O O O O O % ; 2 2 3 3 2 %.T 3 T T ; @ q f l k.n.M.V i r o A ; A { j.J 6..Xq.n A Q ",
"@./  X X[._ l o.g r 1 A t 6 6 r <.J 4 H c j.8 & X X X . . . . . . . . $ + & * r r 8 k k.m.m.M.C * r A ; % p / { d } [ [.'.S n 1 ",
"H.c i.+X+Xo.L { s g l < U y o y r Z ,.<.' l.d 6 & & & X X X . . . . . . . X r t 8 d x z.S.N.M.b u U < Z g 8 / _ 6 6..Xp.u.I c J ",
"G./ '.+XOXA.[ o.c s a 1 _ +.Z Z u 6 Z ,.E l.j.p * & & & X X X . . . . . + & 0 q 9 k k.m.N.S.M.P 6. .1 i s z ' ` z ...Xf.q.L c Q ",
"<.` w.i.9.S.n.' j k , 2 L G G K # 6 i Q Q A.x.k r * & & & X X . . . X X + & 0 8 s z z.m.V.M.=.2 A Z , : i z m Y h...8.3.8.K A F ",
"o.A.+.L Y [ l o.K G 2 , , , L F Z i i t P D.K.k.p r & & & X X X . . + + + & r 8 s x l.S.M.U...F , , < 1 2 S _ X.e } n i E | a ! ",
"{ S.+.^ ~ Y i @.[ ..B L 2 , I G G U t o o N ).J.s q * & & $ & X . + X X X * r 8 s z n.m.M.U.| D 4 H ) [ ..[ { ` r E F i Q [ z D ",
"` [ :.8.8./ l.o.B ] / B _ 3 4 4 G 7.Q y r V ).I.x 8 * * & & & X X X $ $ & * 0 w f g n.n.n.V 4 4 J { / / ] N ( A.x ` q.1.;.] a J ",
"X.( W.oX{.] x.#.#.{ ../ { _ 4 4 G _ Q H S ^ )._.z.9 r * & & & X X + + & & * r w 7 f c c C W , G ' _ L ..) { o.[ j.} u.f.{.m S H ",
"{ / OXOXa.` c #.].Y.T.) / B Y 4 4 4 4 G 2 I )._.N.s r * & & & X $ + & & * r t t 9 9 f f V W A ( ) m M Y.=.G.@.' p 6.p.+XXXY B F ",
"F.[ q.XX[._ L 7.].E.F.A.] ] ..Q 5 4 ~ Q 4 E V._.m.9 r & & & & & X & & & & * r t 8 8 e w V b ( { L B A.D.;.H.7.` e o.E.q.2.P x U ",
"@.[ 7.a.'.A.[ 7.Q.U.F.S.C ' { ..~ 5 5 ,.5 } n.K.k.8 r * & & & X & & & & & * 0 6 q q r 0 V C ] ' ^ A.F.m.n.L.#.` z. .9.q.2.K m J ",
"o.@.{.i.p.S.l.@.K.b.B.B.F.T...A.@.4.,.,.4.Y z z.x t r & & & & & & X X & & * * r 0 r * * b M. .Y.T.D.N.v.c.b.@.} h.#.3.! 6.I K Q ",
"{ S.X.P ~ [ / @.S.c.c.S.E.U.( ..@.,.X.o.` Z s x s t * * & & & X $ & & X & * * * * * * & b Y.X.| Y.Y.D.b.b.A.' ` t X.v v v  .l J ",
"{ S.~ U Y | / @.{ b.I.].].].{ ..@.<.{ @./ u t s 8 r * * & & & & X X $ & & & & * * * & . 0 Y.] E.].].].B.x.( ' ] l W F v J ..l J ",
"o.G.w.<.9.{ z. .[ v.b.Q.E.E.X...G.4.@.@.L X # 8 8 r * * & + + & & + $ $ & & & * * & & + & C +.| E.:.F.b.c.[ ' A.k.` q.2.r.X.L Q ",
"7.o.XXXX{.A.J.@.J.c.c.S.T.Q.@...@.4.<.<.u . # 6 r * * * * + + & X $ $ + $ & & & & & + . . V ..Y.T.Y.v.c.c.b. .{ x ` 2.u.9.W _ J ",
"F.A.H.{.q.o.c #.B.c.b.B.A.D.{ A.@.4.4.R & X & & * * * & & & + X X & X X + & X & & $ X X X m M.M V m.S.c.v.N.:._ y &.4.q.G.L x Y ",
"H.G.-X3X+X@.{ '.Q.A.N.F.D.{ [ A.<.4.! M * + + + & & & & & $ X X X X X X X + X $ X & X X X * C ..) D.S.m.) E.:.` a 7.3X%Xa.~ c Y ",
"7.@.OX3XXXF.A.7.[.:.F.A...[ [ <.1.,.m l.p * * * & & & X X X X X X X X X X X X X X X X X X X i C )  .B ..E.#.@.` l....Xg.q.~ ( ~ ",
"7.@.w.+X{.S.A.7.E.D.Y.) ] { ,.5 ,.Q l B.k 8 e r & $ + + & X X X X X X X X X & X X X X X X & * b C { / U.=.#.O.Y x [ e.5.w.O.K ~ ",
"{ S.<.<.;.^ L o.] ' ../ V ~ 1.i.XXM z.Z.x z 9 q & X X X X X X X X X X X X X X $ & # * * # # # # V '.#.' N ^ ' Y y n E U ~ ' k T ",
"/ l.X.^ ~ L ^ ' N ] B ] 9.&XiXvX:XB I.z.j.j.k 8 * & & $ X X X X . . X X X X & & * t 6 * y p p 6 b >XsX7XOX@.m ^ e F v i T ( d D ",
"U / 6.4.>.B N.{ [ G. XrXxXxXsXsX'.m.I.j.x x k.z.z 8 6 & & $ X X X X X + & & r * 6 6 6 t p h j.j M  XsXsXgXkX7X[.n.v &.1.*.( i = ",
"' a w.+X9.N l.o..XsXvXfXsXsXxXjX>.`.).x z l.Z.v.z.x j w 6 * * + & + & + * * * q t p s d x z.C.j.f W.xXvXjXvXHXFXrX'.q.s.9.n i S ",
"S.l q.&XXXn @.pXZXsXiXiXuXiXsXsX..).).x s h.B.v.l.x k 9 t q * r * * r r q p 8 s d h z j.l.z.C.z.k.R.sXCXNXlXiXeXyXgXeXoX{.E g m ",
"[ ^ W.[.E.9.pXbXsXxXiXiXiXuXsXqXC I._.j.s d s f s 9 p t 6 6 r r 6 r r r 6 q 8 8 9 s s d x l.C.C.m.D.rXAXAXxXuX9X:X3XaXgX.XP d i ",
"} U :.'.'.pXbXsXsXnXnXaXaXuXsXsX| I._.n.s s s 9 9 8 8 6 t 6 r t r q q r q q q 8 9 9 d d z j.C.C.k.C rXCXNXxXeX6XwX6X:XwXjX{.n F ",
"L / 6.{.yXvXlXjXxXgXnXaXaXcXZXZX>.N.P.N.9 9 9 s 9 8 8 8 t t t t q t q q t q 8 9 9 s d d z x z.C.c V xXHXNXsX9X4XwXwX6X=XeXmXu.= ",
"/ n.N '.6XbXjXjXxXxXnXnXAXFXZXVX{.c P.I.s 9 9 s s 9 9 8 8 t t t t p 8 8 8 8 9 9 s s d z x j.z.z.f *.VXJXSXAXgX9XwX6XwX6X8XgXbX6.",
"^ B { q.=XxXZXnXNXZXZXFXSXSXSXFX,Xl I.I.z 8 9 9 9 9 9 s 8 t 8 t q 8 8 8 9 9 9 s s d h z x j.x.j.e }.AXbXNXAXSXMXeX6XwX6X9XiXSXeX",
"I J 8.y.;XxXnXSXLXKXFXZXbXZXKXKXSX=.x.P.z.8 8 8 8 8 8 9 9 8 p t t q t q 8 8 9 s d h g x j.z.z.x b ,XMXdXaXgXNXGXNXuX8X:X6XuXMXGX",
"A.m 8.u.=XnXnXSXIXPXVXjXxXSXJXFXKX,Xx I.K.j 9 s 9 8 9 9 8 8 8 p 8 p p 8 8 8 9 s d g j.l.z.z.j.j >.kXiX9XyXuXuXxXAXAXaXyXeXaXGXPX",
"n.l  .u.f.VXKXSXLXCXiXxXSXCXbXVXZXVX Xx.B.k.9 h d s s d h z h h z z z z z h d d d z j.l.z.k.j m rXGXsX=X*X9XeXwXaXnXnXuXwXbXKXHX",
"] I w.a.i.aXKXjXxXeXeXgXvXsXaXsXjXVXzXQ.x z s s s z j.l.l.k.j.j.x z z x x x j.x z x k.z.k.e m |.mXNXlXwX%X&X%Xy.t.%XsXiXsXNXHXyX",
"P m w.d.a.g.pXsX6X:X=X5XwX:X9X9X8XjXSXhX(.x 9 9 h j.l.j.j.j.x z h z z z z h h x x z x x k b >XFXlXyXiXwX%Xg.oXf.s.s.&XuXsXgXMX8.",
"m B '.s.u.s.%X9X6XeX=X%X&X%X%X%X*XMXMXgXzX(.c s h x x j.x x x z x z z g h h d g x d f f V >XAXGXfX5XoXoXs.s.s.f.s.s.oX6XwXdX.X= ",
"/ c &.~ ;.{.6X5X6XaXuX%X*X%Xg.oX&XMXBXMXJXDX#XT.k.x x z x x x j.l.l.j.x h h d g z c ] }.tXKXBXgXiX5Xi.r.y.y.y.p.s.g.oX5XfX>Xa = ",
"I ) X./ +.| ,XlXgXwXaX9X&X%Xd.d.g.iXGXGXJXJXJXkX,X|.T.D.S.S.m.x.z.z.z.l.k.c [ :. XOXpXZXSXKXGXvX6Xf.t.r.5.r.t.t.s.oX9XjXeXW t = ",
"Y Y ;.~ ;.B Q.pXAXAXCXAXaX=Xs.y.i.*XlXJXKXJXVXxXsXrX0X<XrX<X2X2X2X2X0X0X0XhXtXtXuXqXsXpXsXSXKXCXg.3.r.r.5.5.y.&XwXfXjXiX;.; u v ",
"A.M {.oX'.M l w.xXZXNXLXLXJXgX;Xs..XqXmXJXLXHXbXrX:X%XoXoX%X-X:X-X:X:X3X*X+Xd.d.oX;X;X6XgXGXGXiX0.4.3.r.s.=XaXMXdXaXtXr.T y q y ",
"S./ OX-X'.a L X.9.aXAXNXSXKXPXLXSXMXZXmXmXZXFXSXnXaX9X=Xd.y.0.0.q.3.3.5.5.r.p.g.=X9XaXvXNXgXuX:Xf.f.5XfXNXNXjXfXdX6X;.%.*.v 7 y ",
" .Y -X&Xu.A.] O...&.%XaXbXZXVXCXZXJXPXPXKXFXVXnXxXgXiX9X5X:X=X=X+X+X+X+X%X&X=X4XeXaXsXaXuXsXCXCXCXBXlXsXaXiXjXjX.XR T &.&.D 0 v ",
"U ~ q.w.:.z.[ +.:.b e *.:XbXZXZXcXcXFXFXmXnXnXvXvXMXvXgXaXuXwX:X8X5X5X6X6XyXaXgXvXvXZXJXSXCXMXuXyX6X;X:XeXuX:X>.q 0 m T %.D @ = ",
") A.8.w.E.B _ @.S.z.B f v 8.6XxXmXFXFXDXhXwX:X-X&X&X%X%X=X=X=X=X3X3X;X;X:X:X3X=X=X:X:X:X5X=X&Xg.;X9X&X;X$X8.v @ 0 y n &.T b q v ",
"] S.w.a.a.Y ` @.N.b.c.A.C b ; R e.6XxXZXxXqX=Xg.f.f.f.f.s.y.y.s.s.d.d.d.s.s.f.f.d.g.oX&X=X=X:X:X5X;Xe.W e 7 y ; @ v &.&.2.N l D ",
"+.#.+.~ 6.o.A.@.A.v.v.@.*.V v y @ = D 8.:XiXsXiX5X%Xg.s.s.s.s.d.d.g.%Xg.g.%X%X*X%X;X:XiXeXuX9X.X&.D 0 7 f a y b m T D ; F | / J ",
"6.+.~ ;.<.A.L.@. .J.Q.].[.E.V ] m 2 @ @   ; T &.t.u.s.d.s.d.s.s.d.g.%X%X%X&X*X%X$Xg.d.8.%.; @ @ v P W M f v v M c R F R D ~ U ~ ",
"G.X.8.~ 7.[ A.o.#.b.L.W.E.:.Y  .' ! P n v = % @     O   @ ; ; ; v T T T T D ; ; @       @ @ = 0 v m b g x K i ^ k W U ; ! ~ _ <."
};