/* XPM */
static char *f348980fa70740fae545b98a57ac04f5o3bhTJsS6MsGEcSa[] = {
/* columns rows colors chars-per-pixel */
"64 64 200 2 ",
"   c #150200",
".  c #1C0600",
"X  c #170A00",
"o  c #1C0A02",
"O  c #1F0D09",
"+  c #1C1100",
"@  c #240500",
"#  c #2C0701",
"$  c #240B02",
"%  c #2B0E02",
"&  c #210E0A",
"*  c #300F06",
"=  c #330E08",
"-  c #241404",
";  c #2D1305",
":  c #241009",
">  c #2C1509",
",  c #2C1B0C",
"<  c #331404",
"1  c #391502",
"2  c #341A06",
"3  c #3C1B06",
"4  c #32150A",
"5  c #3B160C",
"6  c #341A0B",
"7  c #3B1D0C",
"8  c #2A1711",
"9  c #271D11",
"0  c #2E1A13",
"q  c #331C13",
"w  c #3A1E12",
"e  c #321F19",
"r  c #3A2007",
"t  c #36210D",
"y  c #3C240D",
"u  c #282013",
"i  c #342114",
"p  c #3C2214",
"a  c #3D2A14",
"s  c #352219",
"d  c #3C241B",
"f  c #3E291B",
"g  c #3A2721",
"h  c #3F2A20",
"j  c #401D07",
"k  c #421E0C",
"l  c #4B1E0B",
"z  c #561E0F",
"x  c #401F10",
"c  c #411E1A",
"v  c #531F12",
"b  c #452202",
"n  c #4D2306",
"m  c #44220D",
"M  c #4C250D",
"N  c #4D2A0C",
"B  c #532204",
"V  c #52260C",
"C  c #582709",
"Z  c #542A0D",
"A  c #5C290A",
"S  c #442414",
"D  c #4A2613",
"F  c #452B15",
"G  c #4D2A15",
"H  c #43261A",
"J  c #492719",
"K  c #452A1C",
"L  c #4B2C1B",
"P  c #522513",
"I  c #592415",
"U  c #532B14",
"Y  c #5A2D15",
"T  c #532D1B",
"R  c #5A2E1B",
"E  c #473215",
"W  c #4B3116",
"Q  c #47311A",
"!  c #4D321C",
"~  c #4F3A1D",
"^  c #553116",
"/  c #5B3115",
"(  c #54321C",
")  c #5B331C",
"_  c #54391E",
"`  c #5D391D",
"'  c #642E13",
"]  c #6C2F16",
"[  c #612E1E",
"{  c #613315",
"}  c #61341D",
"|  c #6C341B",
" . c #62391E",
".. c #70381F",
"X. c #462722",
"o. c #4B2521",
"O. c #452C22",
"+. c #4C2D21",
"@. c #4C2D28",
"#. c #532B24",
"$. c #5A2E24",
"%. c #463023",
"&. c #4D3123",
"*. c #473028",
"=. c #4C322A",
"-. c #533420",
";. c #523621",
":. c #513520",
">. c #563621",
",. c #533325",
"<. c #543024",
"1. c #533322",
"2. c #583120",
"3. c #5A3020",
"4. c #5B3121",
"5. c #593221",
"6. c #583321",
"7. c #5A3322",
"8. c #5E3320",
"9. c #5D3323",
"0. c #593620",
"q. c #5A3620",
"w. c #583522",
"e. c #5B3622",
"r. c #5F3421",
"t. c #5C3621",
"y. c #5F3622",
"u. c #5E3424",
"i. c #5C3725",
"p. c #5B3522",
"a. c #563820",
"s. c #553924",
"d. c #583821",
"f. c #5B3822",
"g. c #583A22",
"h. c #5C3923",
"j. c #5D3923",
"k. c #5E3823",
"l. c #5D3A24",
"z. c #5F3B25",
"x. c #5E3A24",
"c. c #5C3924",
"v. c #57322A",
"b. c #573229",
"n. c #563629",
"m. c #553528",
"M. c #54352A",
"N. c #5C3229",
"B. c #563B2A",
"V. c #5D3B29",
"C. c #622E23",
"Z. c #632E28",
"A. c #623120",
"S. c #623321",
"D. c #603522",
"F. c #633422",
"G. c #613623",
"H. c #643523",
"J. c #623724",
"K. c #653624",
"L. c #663725",
"P. c #673625",
"I. c #623422",
"U. c #693424",
"Y. c #6B3726",
"T. c #693626",
"R. c #643A22",
"E. c #613824",
"W. c #633925",
"Q. c #633A26",
"!. c #613B26",
"~. c #643926",
"^. c #653B27",
"/. c #623C27",
"(. c #633B23",
"). c #6A3927",
"_. c #693B25",
"`. c #64312B",
"'. c #613E28",
"]. c #633F29",
"[. c #653C28",
"{. c #673D29",
"}. c #623E2B",
"|. c #6A3928",
" X c #683B28",
".X c #6B3C2A",
"XX c #6A3F2C",
"oX c #6A3D2B",
"OX c #703F2E",
"+X c #5E432E",
"@X c #654125",
"#X c #684726",
"$X c #64402A",
"%X c #64412C",
"&X c #6E412E",
"*X c #6B422A",
"=X c #6D482E",
"-X c #71462E",
";X c #644030",
":X c #6C4633",
/* pixels */
"m F W W G G ( g.( ( G m m M G G G G G ! ,.,.m.m.-.-.( ! ! ( -.-.! W W F G G T ( t p p p 6 6 t p N N ^ ^ G G G T y F F F G j.$X].",
"m D U ( ( ( x.].q.( T G G ( ) g.W W W ! L L L L F F F S S F F F y y y m m F ( ( L W ! L F F F Q Z ^ ^ U F S D L m G G F U r.W.r.",
"U R ) ) ) r.W.{.q.( ( T ( ) x.].( ( ( ( L H S w G G G F F G G G F F F G W _ j.z.` ` ` ) ( ( ) ` ` ` ) T G D L L G ( ) ) ) L.L.} ",
"L.L.L.H.S.} } } ( T U G G ( ( q._ _ _ -.L H S w ( T T T T T T ( _ ( s.g.j.x.!.{. . . .) ) ) )  .) ( T G D J J L U ) r.) S.T.T.[ ",
".X XL.L.F.S.) R ( T G G G G G U _ _ _ -.( L L H T T T T T T T T ( _ -.j.x.W.^.^. .} } ) ) ) } { ( G D S S J L o.D R ) R S. XT.C.",
"F.8.) ) F.J.F.8.( ( T U G G G G ( ( ( ( ( ! +.+.7.7.7.( ( 2.7.7.( ( q.x.{.XX&X&XR.} ) ) ) ) ) ) q.( T T 2.b.b.b.( j.W.R.W.&XOX X",
") ( T ( q.j.q.( T T U T G G U U ( ( G G L L ,.,.u.8.7.7.7.7.8.u.U ( ) j.W. X X).x.2.T T ( 7.( T q.( L L #.#.#.o.( _ _ T T q.r.) ",
"g._ ( ( ( ( W G D D D G G G G U _ ( G S S J +.,.P P P G G G P T D G G U U P P V ,.L L J L L L J m 7 3 5 5 5 = # 2 r 2 < < 1 1 1 ",
". . . . . . . . . . . . . $ $ $ @ @ @ @ @ @ @ @ o . . o o . . o . . . . . . . . @ @ @ @ @ @ @ % % * < < % % * 4 % ; < 4 6 7 7 7 ",
"H H H H H H H H H H H p p p p p H H K K L +.+.+.O.K O.K K K H H H H K K +.K L K +.&.&.+.L L +.&.o.o.o.+.K H H H p p H J K L L L ",
"( ( ( ( ( ( ( ( &.&.&.! L L L L L ! ( -.s.g.g.g.-.-.-.s.s.-.( L L L T T ( ( ( ( V.V.V.,.,.,.,.,.m.m.M.,.+.+.+.L S S L L L L L L ",
"P P P P P P P P S J G L L L L L m m M G G G G G M G U ( ( ^ G G P P P U U P P P T 2.T L J J J L +.L L L L L H S J J L T T T T T ",
"Y Y Y Y Y Y Y Y T T ( ( ( T T L M M G U U G M M M V Y ) ` ` ) ) R.R.R.H.} ) ) Y q.w.w.2.T T T ( L L H L +.,.,.L ( 2.q.w.u.x.u.u.",
") ) ) ) ) ) ) ) J.W.W.J.8.R U P U U ( ) ) Y P M G U ) j.!.!.!.!.R.R.R.R.F.) ) R ( ) ) R U G U R L G S L -.s.-.( ) ) r.j.x.x.j.r.",
"T T T T T T T T ) ) F.F.F.) Y U G U R 7.8.) T U L L L ( ( ( _ _ G G T T T T G G M P P D M M M U L S m S L ( L F U U R R ) ) R R ",
"J J G G J J J J P Y ) H.)..X).).D G R u.u.u.$.T L L J F F F F J J L L ( ,.-.-.-.R ) ) R Y Y ) ) ( G m S L ( G m U Y R R R R R Y ",
"P P U U U P M l n n V U Y R ) ) T k 1 k 7.].7.D G T T R R T T G ` ` @X#X#X@X` ` / Y Y Y Y Y Y Y ( G D D G T T T J D D J G L T ( ",
"T T T R R R R T R ( ) ) q.q.q.) T S j D 7./.q.G G G G G G G G G U Y ) } } ) Y U G G G G D D D D S S y m S F F S S S S S S H L L ",
"H H H H J L +.+.+.#.+.+.L L L J ( L J L q.x.q.( 2.( ( T ( ( 2.2.[ C.C.U.C.C.C.[ ,.,.,.+.+.L L L K K H K %.%.O.K K d d d K O.O.O.",
"O.K H H H O.O.O.&.&.*.O.O.O.O.O.S S S S S S S S L L S S S S L L T T T T T T T T K K H H H H d d i q i d f f d q q q 0 0 q q s s ",
"> > & $ $ $ & : & : > > > > > > % % ; ; % % % ; % % @ @ @ @ % % - - - - - - - - : : & & & & & & . . . $ : : $ . . . . . . . o $ ",
"; % $ @ $ $ $ $ @ @ @ $ % % % % ; ; ; ; 4 4 4 4 4 4 4 ; ; 4 4 4 , , , , , , , , q q 6 4 4 4 4 4 > > > > 6 7 6 > q q 6 , 6 q q w ",
"&.&.,.-.,.&.! ! K L +.&.&.,.&.&.d p w p H K H d O.O.+.+.+.+.O.O.J L ! &.&.! L F +.+.+.L L L L L ( L L L ! ,.,.! ,.,.+.+.+.+.+.,.",
"3 3 m S F S m m 7 7 7 m m m k 7 H p w p K +.K d H K O.+.+.O.K H P I R [ [ Y I v G G J J S S S S T G M M G U T T J D S S m S S D ",
"L G S S S S S S S S S S S m S S k k S S S S J G L F S S F F S p m S S L L L L J H H J J K K K J &.&.L J J K L +.J J J J J G G G ",
"J S S S S S S S S S S S x x x x 7 7 x S S S S S J H p p H H p p S J L L L J S S S J G L L L L L ( L L L L L L L L L L L J J S S ",
"L L H H S H H H H H H H S S S S S S S S H H H L K J H H J J H p ,.,.+.L L L L L D D G G T L T G ( ( ( ( ( ( T T L L H H S S w w ",
"K K H H H H H H H H H H H H H H p p S H H H H H K d p p f f p p ,.&.+.K K L +.+.D P U U U U U U U R R ) R R U P S p p p w w w w ",
"K H H d d d d d H H H H H H H H p p p p d d d d f d p p d d p i O.K K H H K +.*.T T T ( ( ( R R D G G G G G D m d d H H H K K K ",
"*.*.O.O.O.O.O.O.O.O.O.O.O.O.O.O.O.O.O.O.O.O.O.O.%.O.f h O.O.h f O.O.O.O.O.*.=.=.L L L L L L L L L L L L L L L L d K O.O.O.*.*.*.",
"O.h d d d d d d d d d d d d d d d d d d d d d d f s s s s s s i s d d d d d d d q q q q q q q q d d d d d d d d q q q q q q s s ",
"& $ $ $ . . $ $ . . . . . . . . $ $ . . . . . . o o   . o o .     . . . .       . . o o o o o . & o . . . . . o . . . . . . .   ",
"6 2 2 2 2 2 2 6 < < < 2 3 6 7 7 S S S S S S S S H H J J H p 6 4 y y y y S L ( q.S S S S S S S J S S L L L L F S W Q Q Q Q W F F ",
"! L L L L L L ! V.V.V.V.}.}.}.}.V.V.V.w.2.T T T +.+.+.+.+.&.&.,.F F F L L ,.w.u.}.}.;X;X}.V.w.2.-.,.! L ! &.-.m._ _ s.s._ ( ( W ",
"-.-.-.-.-.-.-.s.( ( ( ( 2.2.2.2.].V.x.g.-.( ( T ,.,.+.L ,.,.V.V.B.B.s.s.-.( T T S G ( x.V.V.g.q.%XV.-.L L -.V.%X].].].!.W.r.q.) ",
"q.( ( ( ( ( ( -.q.q.q.7.) ) ( ( R R R R R R R R T T L L L L T T ! -.-.g.g.q.7.R T R r.].:X:X:X:X%XV._ T T ( x.$X.XoX.X X).L.S.S.",
"j.j.) ) ) ) g.j.) ) ) ) ) ) R R R R R R R R R R G L T T T T G G 2 3 S T u.{.XXXX*X{.W.r.) ) r.F.!.j.) ( ( ) ) j.T.T.T.T.L.S.} R ",
") ) ) ) ) ) ) ` U U U P P V V M } ) ) / Y U P V G U ) r.j.r.q.) m S G T R 7.8.8.} ) U V M P Y ) j.j.` ` ) ) ) ) R } } } } R R R ",
") / / Y Y / / )  . .} } } } } } } ) / Y U Z V V R ) ) ) ) ) ) ) V.x.q.R T P P P } ) ) } } _.*X-X) ) ) / Y Y U U U U R R R R R R ",
") ) ) ) ) ) ) ) Y Y Y Y Y Y Y Y ) ) ) ) ) ) ) ) r.) R P D D P P g.q.7.R R $.S.F.U U U U Z V V V / Y V M n n M M G G U T ( ( ( T ",
") Y P V V P Y ) { { { Y Y Y { } | | ......| | ' L L L &.&.&.+.+.Z.Z.`.`.`.`.Z.Z.$.u.N.`.N.N.$.#.#.#.#.#.#.#.#.#.N.N.N.N.N.N.N.N.",
"K K H H H H K K L L L L S S L ,.L L L L L L J J p p p S H H H H H H H H H H H S 6 6 7 7 7 6 2 4 w p w p p p i p > > > > > > > > ",
". .   . . . . . . . . .   . . $ $ o o . o o . . % @ @ @ @ % % % X o o o o o o X o o o o o o X   + + + + + + + + - - + - - - - - ",
"q w w w w w w q w w w 6 6 4 w p d p i i i i s d S S S m S S J J a a a a a a a a L L L K K K F F f f f f f f f f p a a a a a a a ",
") ) } } } } ) ) ) ) ) R Y Y ) } ) ( ^ U U ^ ( ) q.q.q.q.q.w.x.x.x.x.x.x.V.x.x.u.J.J.S.8.8.8.8.8.T T T T T T T T T T T R R R R R ",
"A A A A A A A A C C C B B B C A C Z C C Z C A A U U R R ( ( R R I I Y Y Y Y I I I I I z z z z v v v P P v v v v Y Y Y Y R [ [ [ ",
") ) Y Y Y Y ) ) R R R T G G R 7.r.r.J.W.W.W.W.W.) r.^..X*X{.W.F.} } } F.H.S.} } ^.R.F.) ) ) F.F.u.u.u.u.u.u.u.u.U Y Y ( ) ) ) ) ",
"&.+.K H H K +.&.O.O.O.O.d d O.*.X.X.@.=.M.=.@.@.D U ) F.R.) R U G G ^ ( ( ^ U G _ ( W W G W W ! F F F F F F F F E E W W ~ ~ ~ _ ",
"#.o.c q 0 8 9 u e s s 0 8 8 e g s s i q q i s s U U ( ( ( ) ( ( A Y { } } } { Y ^ ^ ^ ^ Z N n b 2 2 7 7 p p H H N P U ( ) (.!.@X",
"U.U.R T G G F F T T T L J J T w.w.q.q.( ( q.q.g.U U ( ( U U G G Y ) ) } R.} ) ) ` j.j.j.` ) ^ U H H F J K K L Q q.g.x.x.].].%X%X",
"] ] ' ' A Z Z N Y Y Y Z V V Y Y { { / / / / { { %X%X$X$X!.j.q._ T ( -.w.w.q.-.( 2.-.q.q.-.( ( T m.s.s.B.B.B.B.B.&.&.&.&.&.&.&.Q ",
"_._._.R.j.) ) ( ) ) R R R R ) ) ) ) ) ) ) ) ) ) V.V.V.V.g.-.( ( ,.m.m.B.B.B.B.m.,.,.,.,.,.,.,.,.F F J J J J J J *.%.%.%.O.K K K ",
"w p p p i i q , q q q q q q q q , , 6 6 6 6 , , 2 2 2 2 2 2 2 2 ; ; ; 4 4 4 4 4 4 4 4 4 4 6 6 6 $ $ $ $ % % % % > > > > > > > > ",
"o o o o o o o o : O o O & : & o o o $ : : $ o o ; ; < 2 2 2 2 2 % % % % ; ; ; ; ; ; ; % % ; ; 4 2 2 2 2 6 7 7 7 < < 2 2 2 2 6 6 ",
"K K K a F K K Q &.+.K +.&.&.+.K K L Q &.&.Q L K p H H K K K K K g.g.w.w.g.V.V.V.B.B.s.s.s.s.s.B.L Q Q &.&.m.s.s.].].].].].%X%X%X",
"^ N N N N Z / / U V V Z Y Y U n n V Z Z Z Z V n p H H K K K K J m m k k m m D D ! Q F F F F F Q p p p H H J K L U U U P P G G N ",
"R.R.) ) ) ) ) Y U N U ) ) ^ U ^ T U G T U G m j 3 m D D D D F G G R 7.R G D G T ,.,.m.m.,.+.L H L S S H L L F S m m m D G G m m ",
") ) ) ) Y Y U U ) ^ ^ ) ) U U ^ D M D G ( ( ( T D G T ( T U T ( L L G T 2.g.V.V.,.+.+.+.L L +.+.L J S F L ! L J T G G U ( ( ( T ",
"R.R.R.R.R.R.R.R.=X@X(.@X(.) ^ ) !.g._ ( ) ) ( ( ( ) j.j.q._ ) q.L S 7 7 F ! ! L L H S S S S L +.( L L L ( -.-.( q.( ( ( q.x.!.z.",
"R.R._.{.*X&X-X-X*X!.(.*X@X) U ^ %X!.) ( ( ( T U _ g.x.x.q._ ) q.s.Q y 2 2 2 2 2 S S S m S S F G ( ( ( -.g.g.x.g.x.) T ( ) !.$X%X",
"}  .R.R.R.R._._.^ U ) _.(.^ N N G F m D G ( ( ( T ( q.q.( ( ( ( B.B.:.F y t y F G L L L L G G F ) ) ) j.j.j.j.j.z.q.( T ) !.%X=X",
"*X*X{._.R.) ) ) ^ ^ ` *X*X` ^ ^ ) ( T T ( ( ( ( G T ( ( T U T ( F ! -.! F L s.+X( s.g.g.g.s.( W ) ` j.` ) ) ` ` !.q.( ( ) z.$X%X",
"&X*X*X{.R.R.) ) @Xj.(.*X$Xj.) (.%X].x.j.g._ T G F G ( ( ( T ( ( S J G L T ( w.V._ _ _ _ g.g.g.` )  .R.) / Y / ) q.( G G ( ) q.q.",
") ) ) ) ) ) ) } _.) ^ ) ^ U U ) G G G T ( ( T G G U ( _ ( ( ) q.w.R T T 7.q.R G W G G G G ( g.l.)  .R.) Y P U / U G m m D G G G "
};
