/* XPM */
static char *_b8f274edc594020b91d95a548467381W5bjlCnincYsoj7R[] = {
/* columns rows colors chars-per-pixel */
"64 58 174 2 ",
"   c #040402",
".  c #080704",
"X  c #0A0906",
"o  c #0D0C09",
"O  c #110E0A",
"+  c #13120E",
"@  c #161512",
"#  c #191714",
"$  c #1C1A15",
"%  c #1E1C19",
"&  c #211E1C",
"*  c #24221D",
"=  c #28251E",
"-  c #262522",
";  c #292623",
":  c #2B2925",
">  c #2E2C2A",
",  c #302D25",
"<  c #312E2B",
"1  c #35322D",
"2  c #39352D",
"3  c #3E392E",
"4  c #353432",
"5  c #393634",
"6  c #3D3A35",
"7  c #3C3B3B",
"8  c #413C36",
"9  c #413E3B",
"0  c #454137",
"q  c #44413D",
"w  c #49443E",
"e  c #4C483F",
"r  c #524A3E",
"t  c #403E40",
"y  c #454443",
"u  c #4A4643",
"i  c #4D4A45",
"p  c #484748",
"a  c #4D4B4A",
"s  c #514D45",
"d  c #524E4B",
"f  c #565147",
"g  c #55514D",
"h  c #5A544D",
"j  c #5E594D",
"k  c #544F50",
"l  c #555353",
"z  c #5A5652",
"x  c #575857",
"c  c #5D5954",
"v  c #555659",
"b  c #5D5C5A",
"n  c #615646",
"m  c #63574D",
"M  c #625A4E",
"N  c #625C55",
"B  c #615E5A",
"V  c #6C604D",
"C  c #666157",
"Z  c #696256",
"A  c #65615D",
"S  c #69645D",
"D  c #6E695D",
"F  c #716B5E",
"G  c #786B59",
"H  c #5D5E62",
"J  c #605E60",
"K  c #656362",
"L  c #696662",
"P  c #6D6A65",
"I  c #64656A",
"U  c #686768",
"Y  c #67686E",
"T  c #6D6C6B",
"R  c #726D64",
"E  c #726E6A",
"W  c #757066",
"Q  c #7A7266",
"!  c #74716C",
"~  c #7A756C",
"^  c #7F786F",
"/  c #6C6D73",
"(  c #757473",
")  c #797672",
"_  c #7C7974",
"`  c #757579",
"'  c #787779",
"]  c #7D7C7A",
"[  c #857763",
"{  c #817669",
"}  c #827A6E",
"|  c #827D73",
" . c #817E7B",
".. c #868176",
"X. c #8A8276",
"o. c #84817D",
"O. c #8A857C",
"+. c #8E897F",
"@. c #958976",
"#. c #9D8B73",
"$. c #918779",
"%. c #938B7E",
"&. c #988D7B",
"*. c #9F907B",
"=. c #858482",
"-. c #898682",
";. c #878887",
":. c #8C8985",
">. c #858488",
",. c #87888D",
"<. c #8C8B8A",
"1. c #928D84",
"2. c #988F82",
"3. c #918F89",
"4. c #918F8A",
"5. c #908F8C",
"6. c #969085",
"7. c #949087",
"8. c #9A9285",
"9. c #93908B",
"0. c #90908D",
"q. c #97958F",
"w. c #98948B",
"e. c #9D988E",
"r. c #929191",
"t. c #969591",
"y. c #959592",
"u. c #969694",
"i. c #989692",
"p. c #9C9991",
"a. c #9A9996",
"s. c #9E9B95",
"d. c #999998",
"f. c #9D9D9A",
"g. c #9E9E9C",
"h. c #A39A8D",
"j. c #A29D93",
"k. c #A19E97",
"l. c #A99F90",
"z. c #A09E9A",
"x. c #A2A09C",
"c. c #A4A39F",
"v. c #A7A49D",
"b. c #AAA59C",
"n. c #A8A59F",
"m. c #A4A4A3",
"M. c #A9A7A2",
"N. c #A8A7A5",
"B. c #A7A8A6",
"V. c #A8A8A5",
"C. c #ADABA5",
"Z. c #ABABA9",
"A. c #AFADA8",
"S. c #ACACAA",
"D. c #B0ADA6",
"F. c #B0AFAB",
"G. c #AFB0AF",
"H. c #B2B1AE",
"J. c #B8B4AE",
"K. c #AFB0B1",
"L. c #B4B5B4",
"P. c #B7B7B4",
"I. c #B9B6B1",
"U. c #B7B8B7",
"Y. c #B8B9B7",
"T. c #BCBBB5",
"R. c #BBBCBB",
"E. c #C2C1BE",
"W. c #BFC1C0",
"Q. c #C3C4C3",
"!. c #C3C4C4",
"~. c #C6C8C7",
"^. c #C9CAC9",
"/. c #CED0CF",
/* pixels */
"] ] a.r.] b p v / I v H b a y 5 4 7 p y a.N.Z.V.V.V.C.] -.4.7.1.:.O.O.c <.P.v.M.C.v.b.v.s._ =.! u q c 9._ D R P U / ` Y K T H Y ",
"]  .=.=.=.( b I / v K / v y 7 7 4 y g y <.g.r.y.y.y.i.L ! ! _ o...| ) i u o.y.:.o.o.:.o.E A ] T g q C w.^ D | E U ' ,.` H Y Y I ",
"( =.=.] ] ( k I Y H b T k 7 y 5 4 b ] =.d.r.T K A z P T E ! ) ! z L P P a K ! A z E _ ! E ! ! L d g N ..Q Q O.E ] >.' K l H T b ",
"( ] =.T T K p x I H l x a a y 1 4 x ] u./.!.5.:.-.K o.] :.4.9.a.T _ o._ ! =.q.O.S 4.M.F.j.1.4.O.q w u g j s h b L ] ' K a b T J ",
"( K  .] ] ( T K b a v y 4 4 y l a c ( o.Y.!.0.4.-.A ] =.] :.y.c._ O.1.O.T o.s.O.L -.v.S.p.:.1.:.d u N N N s s P E T T ' K b L K ",
"E L <.m.m.m.u.] K p p 5 4 5 H x 9 b ) o.V.W.a.q.:.A -.=.-.:.y.f.o.1.4.q.E  .m.=.S q.v.s.q.1.9.1.g u N D ~ S g T :. .( r.;.U ! U ",
"L E _ c.g.d.u.=.b 7 7 > : : a 7 < b ) ] <.m.f.f.:.c :.-.o.-.<.4.! | | 4.~ o.P.q.B o.q.:.4.q.1.O.s s N D W h d g ! ] T >.;.g L o.",
"c c A d.m.f.u.=.c 7 7 > - : y 7 > g b z L ) _ _ ! z B A c g B T A L E ( ( U _ L b A B A T ! S L 8 8 u c F h u 4 7 x T ( ] d a -.",
"L B g K K l l l l d 5 > ; : 7 5 4 y x ( ] <.<.T U ( ( ( ! T ( 0.g.m.Z.m.B.m.m.] m.Y.P.P.P.S.S.V.P d g h S E c d p a b T T P b ! ",
"a a y y a a a y 7 y y y q 7 y 7 > k ] <.r.m.g.T ( ;.;.] ( ( ( m.P.P.P.P.K.Y.^.u.S.~.!.~.!.~.~.H.R c A E z z d y a l K b l l K K ",
"l l a a x y 7 4 5 7 y a a 9 5 > > T <.u.m.K.f.T ( =.;.o.] ( ( S.P.R.!.R.Y.P.Y.y.Z.R.U.!.~.R.R.M.) c S -.d a p 7 y a B l a y x K ",
"T ( ( ] ( d a 7 y y y a a q > - 4 ;.B.m.S.K.g.U K T ( ( o.] ( m.S.G.R.~.Y.P.P.0.V.!.R.E.!.R.F.a.~ S ~ -.a p p q y l b d a l ( ' ",
"T ( ] ] ] l a y x x 9 9 p 7 > - > T =.] =.;.=.K B K x d d l g K K l b ( _ ] o.K ] y.:.:.o.o.! E S C P _ 9 y i y d x b g l x T K ",
"d l l l b x g a x l y u p q 1 > > x ! a T ( _ ) ) ] ] ! B ) T A T u l :.:.O.| | | ..^ ~ P i h C S c D ^ R g ! T K A P K K B K x ",
"P ! c ! ( ] _ ! T T T K x y 7 9 7 T :.K ! _ ] o.o.=.<.] b ) _ U ! A S q.9.7.%.X.{ { | 7.| d S | X.} h.b.j.R 1.1.| E L K ! c A b ",
"N c u c B K K U B x l d a 5 7 y 7 ! <.P _ o.] _ ] o.0.=.z E T P P A z 9.1.1.7.2.%.%.%.h.| h C R } | 7.2.O.c R R C z g z B u c g ",
"l l g u i d a u a k l a y t y 7 : _ 0._ _ <.o.=.;.:.4.] b ( _ _ _ U L :.1.$.2.%.8.8.8.l...z D ~ ^ R Q ^ L ! _ ( E B l K P K B b ",
"b b b x l k k l b a 7 7 7 7 7 4 < ] q.o.) _ _ _  .:.4.=.B ] -.:.;.E ! w.w.1.2.%.7.7.8.h.| h ! | m n N 1.w.y.:.-.<.:.o. .K l a a ",
"d l l l k a d c K p y y y y y 7 5 =.4._ =.:.:.=.o.-.0.:.B  .-._ :.! ! s.s.1.1.7.7.%.8.l.| c ! | N m N R ) | ~ E E ) L A d a u y ",
"% & & & & % % * $ $ % % # @ @ + @ l B 4 1 a g u B K L L g 9 1 - 1 1 u c z g w 5 8 5 8 0 2 ; < 6 # @ @ % $ * & & & * $ % # @ @ + ",
"# @ # # @ @ % ; = & + O + + $ + X X .         . g U U U b &       + u L U A d o         . X o # ; , = 1 1 1 ; ; ; * & & % % % * ",
"q 1 1 1 > < w N B l 9 5 8 6 u 5 $ @ + o X X . X A -.o.] ! 9 * % @ % l E ! ) A $ + + @ # % ; 1 6 u N s z b c c p y q 9 5 4 1 6 u ",
"z i p g 7 4 x o.) A c b z z A i : : - & % # + o 5 s p u u < - * # # > 9 q i i * % * ; : 4 q u g C ..L A U T ! b g c c y 5 5 q i ",
"c g K T c 7 T u.o.K c K b x c a 7 y y 7 4 > % @ 4 g g g N s 6 2 * - 7 q p i z 9 4 6 7 q y d d d N ] E T ( ( T U K B c c p 9 y a ",
"c z B A L B A L A U x x A b y a p d x g i 7 - % A :.:.O.O.| u 6 - > c P E ! _ d q i g z c S S g g c c z A L T ) ( T L T L T ) ] ",
"g g c A B B z b L  .E E ! E a b y 9 y q 5 - # + d S P ! ! C 8 1 & * 9 g l B B < * - : < : > s C S S d d a l A ( ] ' ( ' T u.Z.m.",
"d i c S N B g i c o. ._ ] ! u d ; X X . X @ + + - % # $ * 8 i i 5 ; @ + # ; q 6 < > - + + 2 N R ~ E d g d d B E ] ] T ] K ;.Z.m.",
"g i h S B B h u z -.4.-.o. .a B a > * @ @ > : - h h s g N L T c y u 9 6 s C R c d g p 1 6 R | Q R O.L c l d b ( ] =.( ( K 5.Z.z.",
"i y i z z z i w i L ! E ( ! i K L g q 1 ; 4 5 > g -.o...O._ ! a 1 c P T ~ ~ P B g c g i h W Z N d E E c d u l T T T K ] b  .5.<.",
"_ E L U L b c A A c c d u B K b c g i w 4 1 < : $ : ; * = * $ + o # * * * = 2 c g g d c S C S c d B b l l l b K l b K b y a d l ",
"F.q.) ) ( T K L T _ o.P L ( _ _ E ! ! L u 5 : % O X . . . . X o O O O + + = 0 N u h c W O.....w.B B b K K b b ] =.=.a.T 7 y a a ",
"P.q.S T P L A K K ! R N L | o._ ~ ~ ~ ! g 9 > < ; % $ $ $ $ & ; , , 2 3 0 j Z S p B S R $.| +.v.K K T K T U K =.o.-.m.) a a l l ",
"m.o.C L L K b x x A A z h A R P P P R R g u 6 g q 4 1 > < 1 5 w s s j M Z Q ^ P u C S C ..O.O.1.K B T T K b B  .:.:.i.T p a y u ",
"E E L K K A b K l g R S h c S z s S P L g h u L c q 9 q q w g c j D F F Q Q Q P i T ! c N C c S ( B U ( T a B  .! L b l y B P K ",
"K E K c K T b K b S _ S C S ~ ~ c ^ W B 9 1 % : - ; > > : - < 5 : : 2 2 1 2 1 < - 5 9 g -.1.4.T ;.;.] _ T A o.q.1.:.U y d f.R.P.",
"b B A b K K x x K C | R ! P ~ ! N ~ P g g 0 2 : ; e s s 2 2 8 2 % & = = = & $ * * % 1 j _ _ -.( =.] T K B U C.D.v.F.-.z B a.P.P.",
"b x B K T K b K E C | ! R ~ _ ~ R _ ! ! E ~ N s 0 | $.$.D j F F w e f s s 0 8 N M s | O.] _  .b K K l x T T I.J.T.Q.S.P A c.P.Y.",
"K x l d K o.=.=._ g W ~ _ | ..~ ! :.~ _ _ L u q 8 F O.7.R Z Q R s h D Z N s i ^ R N w.p.<._ ( T 9 4 5 5 8 x k.v.M.M.c.) =.H.Y.P.",
"c P L L ) ) T K P h g A L S P ~ S B B C S N 0 i z c z c h c B g 9 l ! ~ L c b z z P _ E d a l z l d c b g c b a u z b l x B U ( ",
"! 9.w.w.v.e.R B | ~ S S A A ) O._ ! R | | | B B c d c B g d g B S ] :.i.x.i.c.] _ V.Z.V.! o.o.! T ( _ ] ] ] ] P z _ ] ] ] ) =.V.",
"E +.O.| 7.7.R B | O._ L A c ~ :.| O.~ | O...A A c c A L g i g c A <.y.C.S.k.s.o.] S.Z.S.o.O...E A P o.<.=.=._ P g )  .;.=.] o.S.",
"P 1.j.e.e.e.W P 1.9.1._ _ N S O.| O.O.$.e.O.A L C C B A z i c z z 4.a.k.f.:.y.:.<.H.S.S.=.) 1._ ~ ) -.v.4.=._ ! z _ _ <.u.=.:.V.",
"c S ..| ~ Q N C P _ ) P _ R N R S R ^ | _ ~ c z d d i g g i B a 9 z d g L A E U b ( ) ! A g N S _ _ o.k.-.! ) E z U K L T ( E -.",
"$.%.$.N 6 u g g h E ) q.v.M.c.s. .A E ) ! :. .-.1.o._  .U _ :.:.1.! S ^ O.^ O.i.0.:.) E ) E z T -.q.q.:. .:.r.r.:.] T K E E P B ",
"[ #.*.F u h d h !  .! s.E.E.R.I.s.)  .o.o.-.o.v.C.b.v.i.) x.p.e.+.| Z Q 8.} O.w.p.D.s.) _ ) P ) q.M.q.=.! ) -.o.=.=.T ] :._ ! U ",
"n V G N h | ~ P _  .) i.H.H.F.H.p.( -.:.=._ ) s.b.M.x.p.) p.1.+.X.~ S } 2.} ^ +.| ..] R ! ! o.-.0.F.V.f.] ) -.:. .P c L _ ~ P b ",
"w r j f c ~ 1.:._ P P q.k.f.k.x.:.c _ :.:.] E j.b.v.e.w.P | :...~ P N R } } Q X.~ R S E ~ ) 4.s.f.S.S.k.:.R O.| P N h g c z d d ",
"w u s N B c ! o._ T A ! =.] ) ! S z g z b d 9 s d z c h s s h w w C N C Z C z g c N B B L ) ] o.o. ._ ) P l d z z g i 9 q u z b ",
"E _ ! ! R ! o.=.T b c A K L 1.e.w.1.9.9.R Q ^ N N } ~ | ..| | B R O.1.1.:.w.+.d z P A z b B P z c E c 5 7 9 y a z x z u B -. .! ",
"!  .o...P ~  . .b L z g z L j.b.e.7.j.b...&.8.R N O.X.O.X...+.W S 1.7.p.1.+.+.s c L A B B B P c A P c 1 4 4 q y i z g d K ;._ E ",
"L ! | | c h S A c ) L B c N O.7.X.+.e.e.R @.@.Z s Q } | X.X.X.W g R ^ O.^ } 7.h B P E ! ! P _ R N S g < < < 9 q q h c h B _ E S ",
"K B c g q q g c d B L C B C R D R ~ P ~ h Z M h f S R D S S N N c h f N j h R P L B z i d A R z d z c d 7 1 q i 8 u d i g P A N ",
"( T T d h R R c u w g d w w w i c g w 6 8 6 z ~ R ~ ~ ) B  .o.) E L L ) P ) P _ -. .] B ) w.i.q.q.=.;.y.<.A R ~ -.-.E c d i h L ",
"( T L h P | | ~ S f w w g s s g N j M 0 0 8 c ~ R _ _ o.S o.:. .) L g ! P ) E | O._ ! z _ j.9.4.<.:. .<.y.S  .O.O.O.E c w w d L ",
"o.] T g d g c c s w 8 q s w u s N z u w w u N R S S R ! N B c B L N 9 i g B L ! ! A c y B _ ) ~ E K B ) ] d P P L S h q 2 8 s z ",
") L B B z c P c g N B c z d c A ! P b S P A N c z i 9 9 u 5 < 6 w c h c h c c N B C S z d x b B B x l K T T B b K x d p a d c P ",
"q.) c A L P o.A h h d s i q 9 a L b B E L N c c B d 1 > 4 4 8 d c c N C c B B c C R ~ S L E ! ) ( ( ) ( ( ( E E ] T l l l K  .-.",
"c.o.B L !  .:.A z g u 9 9 9 6 5 A x B ! S c B C B u 1 2 0 1 1 u C N N c c h c N N L R c N L E _ T E o.=.=.( T ( ] T x a d b ) _ "
};
